<?xml version="1.0" encoding="utf-8"?>
<!-- Generator: Adobe Illustrator 25.0.0, SVG Export Plug-In . SVG Version: 6.00 Build 0)  -->
<svg version="1.1" id="Camada_1" xmlns="http://www.w3.org/2000/svg" xmlns:xlink="http://www.w3.org/1999/xlink" x="0px" y="0px"
	 width="272.66px" height="33.68px" viewBox="0 0 272.66 33.68" style="enable-background:new 0 0 272.66 33.68;"
	 xml:space="preserve">
<g>
	<path style="fill-rule:evenodd;clip-rule:evenodd;fill:#E8917B;" d="M1.33,2.61c8.02,0,9.92,10.78,12.4,17.19
		c0.09,0.23,0.17,0.43,0.24,0.62l1.09-2.67c0.56-1.35,1.13-2.78,1.71-4.3l1.12-3.06c0.02-0.06,0.08-0.28,0.18-0.65
		c1.05-2.88,1.58-4.69,1.58-5.45c0-0.16-0.07-0.33-0.22-0.5c-0.14-0.17-0.38-0.31-0.71-0.42c-0.13-0.04-0.56-0.11-1.27-0.19
		l-1.2-0.15c-0.1-0.11-0.15-0.2-0.15-0.28l0.05-0.13l5.28-0.05h1.74c0.59,0,0.99,0.04,1.21,0.11l0.02,0.13c0,0.09-0.03,0.2-0.1,0.34
		c-0.26,0.09-0.5,0.14-0.72,0.16c-0.91,0.11-1.48,0.24-1.69,0.38c-0.22,0.15-0.45,0.46-0.68,0.94l-4.27,10.58
		c-1.33,3.18-2.28,5.64-2.84,7.39l-0.47,1.42c-0.14,0.09-0.26,0.13-0.36,0.13c-0.13,0-0.26-0.02-0.41-0.05
		C10.27,17.47,7.02,6.15,1.33,2.61L1.33,2.61z"/>
	<path style="fill-rule:evenodd;clip-rule:evenodd;fill:#E8917B;" d="M28.12,23.07c0.24-0.1,0.49-0.16,0.74-0.18
		c1.67-0.11,2.62-0.31,2.86-0.6c0.24-0.29,0.36-1.69,0.36-4.19l-0.02-1.71v-1.8l-0.07-1.98l0.03-1.16l-0.02-1.27v-1.5L31.98,8
		l0.03-0.85c0.01-0.19,0.02-0.42,0.02-0.69c0-0.69-0.03-1.41-0.1-2.17c-0.04-0.15-0.1-0.3-0.18-0.44c-0.4-0.21-1.05-0.34-1.95-0.42
		c-0.9-0.07-1.41-0.15-1.53-0.24c-0.09-0.07-0.14-0.23-0.15-0.51h1.38l4.33,0.1c1.11,0,2.59-0.03,4.45-0.1
		c0,0.18-0.01,0.34-0.03,0.49c-0.22,0.05-0.58,0.11-1.09,0.18c-1.03,0.12-1.67,0.23-1.9,0.34c-0.14,0.05-0.24,0.15-0.31,0.28
		c-0.11,0.19-0.17,0.56-0.19,1.09l-0.08,2.11l0.07,7.27v2.88c-0.02,0.91-0.03,1.52-0.03,1.85c0,1.22,0.03,2,0.09,2.34
		c0.06,0.34,0.16,0.58,0.31,0.73c0.15,0.15,0.39,0.26,0.73,0.35c0.5,0.12,0.89,0.18,1.18,0.19c0.61,0.02,1,0.11,1.16,0.26
		c0.03,0.14,0.05,0.26,0.05,0.36v0.13c-0.99,0.03-1.72,0.05-2.19,0.05c-0.27,0-0.76-0.02-1.45-0.05l-2.26,0.03l-3.84-0.02h-0.31
		L28.12,23.07L28.12,23.07z"/>
	<path style="fill-rule:evenodd;clip-rule:evenodd;fill:#E8917B;" d="M49.58,12.39c0.29,0.01,0.51,0.02,0.65,0.02
		c0.78,0,1.68-0.09,2.71-0.28c0.72-0.14,1.3-0.37,1.75-0.69c0.45-0.32,0.82-0.79,1.12-1.42c0.3-0.63,0.45-1.28,0.45-1.95
		c0-0.74-0.23-1.52-0.7-2.34c-0.36-0.63-0.96-1.16-1.82-1.58c-0.85-0.42-1.88-0.64-3.08-0.64c-0.29,0-0.67,0.02-1.14,0.05
		c-0.04,0.56-0.07,1-0.07,1.3l0.08,3.04l-0.02,1.25C49.51,10,49.53,11.08,49.58,12.39L49.58,12.39z M43.53,23.06
		c1.58-0.18,2.47-0.32,2.68-0.39c0.14-0.05,0.27-0.22,0.39-0.49V22c0-0.27,0.04-1.26,0.13-2.95c0.02-0.48,0.03-0.94,0.03-1.4
		l-0.05-1.94l0.03-2.2l-0.02-4.09l0.02-2.93c0.01-1.24-0.09-1.99-0.29-2.26c-0.2-0.27-0.72-0.46-1.56-0.58
		c-0.84-0.11-1.3-0.2-1.39-0.25c-0.09-0.05-0.13-0.14-0.13-0.26c0-0.07,0.02-0.17,0.05-0.29c0.11-0.1,0.36-0.15,0.75-0.16
		c0.05,0,0.2-0.01,0.45-0.04c0.24-0.03,0.48-0.04,0.69-0.04h1.34l4.29-0.05c2.42,0,4.12,0.18,5.09,0.54
		c0.97,0.36,1.75,0.96,2.32,1.82c0.57,0.85,0.86,1.81,0.86,2.86c0,2-1.05,3.53-3.14,4.58c-0.36,0.19-0.64,0.35-0.84,0.49
		c0.37,0.78,0.88,1.72,1.55,2.82l2.07,3.55c0.83,1.31,1.4,2.13,1.71,2.46c0.31,0.33,0.7,0.61,1.15,0.82
		c0.45,0.22,1.21,0.43,2.28,0.62C64,23.21,64,23.3,64,23.37c0,0.07,0,0.15-0.02,0.25c-1.49,0.02-3.23,0.03-5.23,0.03
		c-0.14,0-0.34-0.01-0.59-0.03c-0.77-1.48-1.68-3.11-2.72-4.88l-2.41-4.41c-0.33-0.46-0.6-0.74-0.81-0.86
		c-0.21-0.11-0.49-0.17-0.84-0.17L50,13.31l-0.45-0.01c-0.03,0.35-0.05,1.06-0.05,2.13V21c-0.01,0.21,0.03,0.49,0.13,0.87
		c0.09,0.2,0.23,0.37,0.45,0.49c0.21,0.13,0.82,0.31,1.83,0.56l0.67,0.16c0.08,0.11,0.13,0.26,0.13,0.44
		c-0.29,0.05-0.5,0.08-0.62,0.08c-0.98,0-1.67-0.01-2.07-0.03c-0.21-0.01-0.38-0.02-0.5-0.02L47.3,23.6l-2.16-0.02
		c-0.1,0-0.59,0.02-1.48,0.05l-0.32-0.07L43.3,23.4C43.3,23.3,43.37,23.19,43.53,23.06L43.53,23.06z"/>
	<path style="fill-rule:evenodd;clip-rule:evenodd;fill:#E8917B;" d="M66.97,5.16l0.67-2.46c0.04-0.33,0.1-0.53,0.18-0.63
		c0.07-0.09,0.16-0.14,0.26-0.14c0.2,0,0.42,0.23,0.67,0.7c0.19,0.34,0.34,0.55,0.46,0.64c0.12,0.09,0.29,0.15,0.52,0.19l0.16-0.02
		l0.7,0.07l3.85,0.05l4.55-0.01h1.34l2.53-0.05c0.11,0,0.24,0.01,0.41,0.03c0.74,0.06,1.19,0.1,1.37,0.1c0.16,0,0.29-0.05,0.39-0.16
		c0.04-0.04,0.21-0.4,0.54-1.08c0.14-0.31,0.31-0.46,0.52-0.46c0.09,0,0.2,0.02,0.33,0.06c0.05,0.22,0.08,0.41,0.08,0.58l-0.02,0.65
		l0.02,1.38c0,0.34-0.03,1.41-0.08,3.24c0,0.12-0.02,0.23-0.07,0.32c-0.12,0.08-0.22,0.11-0.31,0.11c-0.09,0-0.16-0.04-0.23-0.12
		c-0.07-0.08-0.15-0.33-0.24-0.75c-0.22-0.97-0.49-1.67-0.81-2.09c-0.22-0.27-0.53-0.46-0.94-0.58c-0.41-0.12-1.38-0.18-2.93-0.18
		c-1.24,0-2.16,0-2.76,0c-0.02,0.43-0.03,0.83-0.03,1.19l0.13,10.13c0,0.4-0.02,1.17-0.06,2.29l0.02,2.17l-0.02,1.21
		c0,0.38,0.06,0.65,0.19,0.82c0.13,0.16,0.49,0.32,1.06,0.47c1,0.25,1.67,0.4,2,0.46c0.21,0.02,0.38,0.06,0.51,0.13v0.49l-2.32-0.06
		c-1.27-0.01-2.23-0.04-2.87-0.07l-2.38,0.11l-1.75,0.1c-0.49,0-0.79-0.01-0.9-0.03l-0.23-0.1c0.02-0.25,0.07-0.41,0.15-0.48
		c0.08-0.07,0.27-0.13,0.6-0.17c0.46-0.07,0.99-0.18,1.61-0.35c0.62-0.17,1.03-0.34,1.22-0.51c0.11-0.1,0.19-0.26,0.23-0.49
		c0.1-0.48,0.15-1.42,0.15-2.82v-2.77l-0.07-6.05l-0.06-1.3L75.3,4.56c-0.69,0-1.56,0-2.63,0c-1.56,0-2.51,0.09-2.85,0.28
		c-0.53,0.3-1.33,1.16-2.38,2.59c-0.35,0.54-0.65,0.81-0.91,0.81l-0.15-0.03c-0.05-0.07-0.07-0.13-0.07-0.18
		c0-0.13,0.09-0.52,0.26-1.17C66.79,6.02,66.92,5.45,66.97,5.16L66.97,5.16z"/>
	<path style="fill-rule:evenodd;clip-rule:evenodd;fill:#E8917B;" d="M99.78,2.63c0.05,0.19,0.08,0.33,0.08,0.42
		c0,0.07-0.01,0.16-0.05,0.3c-0.28,0.07-0.51,0.11-0.69,0.11c-0.07,0-0.2-0.01-0.38-0.02c-0.18-0.02-0.32-0.03-0.43-0.03
		c-0.5,0-0.9,0.1-1.19,0.3c-0.19,0.12-0.31,0.28-0.36,0.47L96.6,6.04l0.05,8.08c0.01,2.96,0.11,4.8,0.29,5.52
		c0.18,0.72,0.5,1.32,0.93,1.79c0.43,0.47,1.09,0.85,1.96,1.16c0.87,0.3,1.73,0.46,2.55,0.46c1.85,0,3.27-0.27,4.25-0.8
		c0.98-0.53,1.69-1.27,2.12-2.21c0.43-0.94,0.64-2.37,0.64-4.29c0-0.05-0.02-0.49-0.05-1.31v-0.47c0-0.17,0.01-0.51,0.03-1.02
		c0.02-0.51,0.03-0.8,0.03-0.89l-0.25-4.69c-0.08-1.58-0.17-2.51-0.27-2.79c-0.1-0.28-0.25-0.5-0.45-0.64
		c-0.42-0.31-1.23-0.58-2.41-0.82c-0.06-0.15-0.09-0.31-0.1-0.47c0.42-0.04,0.84-0.07,1.25-0.07c0.44,0,0.89,0.02,1.37,0.05
		c0.72,0.05,1.11,0.08,1.17,0.08l2.58-0.08l0.51,0.02l-0.02,0.59c-1.34,0.18-2.14,0.38-2.4,0.61c-0.26,0.23-0.39,0.67-0.39,1.3
		c0,0.34,0.02,1.07,0.06,2.2l0.12,3.38l-0.02,1.34l0.05,1.7c0,2.13-0.06,3.59-0.18,4.36c-0.17,1.08-0.42,1.93-0.74,2.56
		c-0.32,0.63-0.79,1.2-1.39,1.71c-0.61,0.51-1.42,0.92-2.44,1.25c-1.02,0.33-2.02,0.49-3.01,0.49c-1.55,0-2.68-0.11-3.36-0.33
		c-1.25-0.38-2.24-0.87-2.98-1.48c-0.74-0.61-1.25-1.22-1.53-1.83c-0.38-0.81-0.57-1.98-0.57-3.53v-1.13l-0.05-4.57l0.05-3.69V5.11
		c0-0.63-0.09-1.07-0.26-1.32c-0.12-0.17-0.29-0.26-0.52-0.26l-0.96,0.02c-0.72,0-1.18-0.07-1.37-0.23
		c-0.03-0.1-0.05-0.19-0.05-0.26c0-0.1,0.03-0.17,0.1-0.23c0.12-0.09,0.27-0.13,0.44-0.13h0.42l1.09-0.02h2.58L99.78,2.63
		L99.78,2.63z"/>
	<path style="fill-rule:evenodd;clip-rule:evenodd;fill:#E8917B;" d="M122.56,13.27c1.16,0.07,2.49,0.1,3.97,0.1
		c0.85,0,1.59-0.03,2.23-0.08c-0.11-0.43-0.23-0.82-0.38-1.19c-0.71-1.89-1.09-2.93-1.17-3.13l-1.48-3.76l-0.16-0.29
		c-0.07,0.13-0.31,0.69-0.72,1.68c-0.69,1.69-1.19,3.01-1.5,3.96c-0.14,0.42-0.29,0.84-0.44,1.26c-0.15,0.42-0.25,0.71-0.29,0.88
		c-0.04,0.17-0.09,0.34-0.17,0.51L122.56,13.27L122.56,13.27z M114.79,23.04c0.15-0.09,0.29-0.13,0.41-0.13l0.38,0
		c0.08,0,0.21,0,0.39-0.02c0.83-0.07,1.33-0.15,1.48-0.23c0.38-0.21,0.71-0.56,0.98-1.08c0.56-1.11,1.2-2.68,1.9-4.71
		c0.34-0.97,0.55-1.55,0.64-1.76c0.27-0.65,0.53-1.33,0.78-2.05l1.53-4.28c0.24-0.67,0.82-2.21,1.73-4.62
		c0.23-0.61,0.51-1.42,0.83-2.44l0.48-0.03l0.57,0.02c0.47,0.92,0.88,1.92,1.24,2.98c0.19,0.56,0.51,1.41,0.96,2.52l2.47,6.69
		l1.32,3.63c0.69,2.07,1.15,3.33,1.37,3.8c0.22,0.47,0.42,0.78,0.6,0.94c0.05,0.04,0.26,0.11,0.61,0.19c0.35,0.09,0.6,0.15,0.74,0.2
		c0.5,0.14,0.84,0.26,1.04,0.36c0.04,0.12,0.07,0.21,0.07,0.28c0,0.05-0.02,0.14-0.05,0.24c-0.35,0.01-0.59,0.02-0.73,0.02
		c-0.55,0-1.53-0.02-2.93-0.05l-1.63-0.04l-1.97,0.03c-0.13,0-0.27-0.01-0.4-0.02c-0.13-0.01-0.25-0.02-0.35-0.02h-0.36
		c-0.12-0.01-0.23-0.04-0.33-0.1c0-0.15,0.03-0.3,0.08-0.44c0.13-0.06,0.25-0.1,0.36-0.11l1.71-0.11c0.44-0.02,0.78-0.08,1.01-0.18
		c0.06-0.19,0.09-0.34,0.09-0.44c0-0.2-0.14-0.7-0.42-1.52c-0.19-0.54-0.37-1.06-0.51-1.55c-0.15-0.49-0.72-2.1-1.73-4.83
		c-0.45-0.08-0.84-0.11-1.17-0.11l-3.49,0.03l-1.03-0.02c-0.37,0-0.78,0.03-1.22,0.08c-0.14,0.33-0.23,0.56-0.28,0.7l-1.44,4.48
		c-0.61,1.71-0.91,2.65-0.91,2.82c0,0.1,0.05,0.26,0.15,0.49c0.23,0.06,0.53,0.12,0.91,0.18l2.22,0.19c0.12,0.1,0.18,0.19,0.18,0.26
		c0,0.06-0.01,0.14-0.05,0.25c-0.49,0.01-0.86,0.01-1.12,0.01c-0.87,0-1.88-0.03-3.03-0.08c-0.53-0.02-0.91-0.03-1.14-0.03
		c-0.23,0-0.62,0.01-1.19,0.03c-0.37,0.02-0.63,0.03-0.8,0.03c-0.26,0-0.6-0.02-1.01-0.05v-0.1
		C114.72,23.27,114.74,23.17,114.79,23.04L114.79,23.04z"/>
	<path style="fill-rule:evenodd;clip-rule:evenodd;fill:#E8917B;" d="M141.12,23.67c0.01-0.16,0.05-0.31,0.13-0.44
		c0.85-0.23,1.68-0.38,2.48-0.46c0.53-0.04,0.88-0.16,1.03-0.36c0.11-0.14,0.17-0.66,0.19-1.57l0.11-4.31l-0.02-2.92l0.02-3.82V8.78
		c0.01-2.3,0-3.73-0.03-4.29c-0.01-0.11-0.06-0.26-0.13-0.46c-0.28-0.13-0.52-0.22-0.72-0.26c-0.19-0.04-1.05-0.2-2.57-0.47
		c-0.01-0.12-0.01-0.21-0.01-0.26c0-0.07,0.01-0.15,0.01-0.26c0.21,0,0.55,0.01,1.01,0.04l2.49,0.09l1.44,0.03l0.42-0.02
		c0.06,0,0.21,0.01,0.47,0.03c0.64,0,1.01,0,1.11-0.01l1.31-0.1c0.88,0,1.5,0.02,1.86,0.05c-0.01,0.19-0.05,0.41-0.11,0.64
		c-0.12,0.02-0.68,0.05-1.7,0.09c-1.01,0.04-1.59,0.1-1.75,0.19c-0.25,0.14-0.37,0.58-0.37,1.31c0,0.17-0.01,0.53-0.03,1.06v0.98
		l0.02,3.02v1.03l0.03,5.4l-0.05,4.6l0.02,1.01c0,0.33,0.05,0.53,0.16,0.6c0.27,0.01,1.07,0.02,2.4,0.03h1.11l2.82-0.1
		c0.74-0.02,1.27-0.1,1.58-0.22c0.32-0.12,0.84-0.49,1.58-1.1c0.45-0.39,0.79-0.79,1.04-1.21c0.05-0.09,0.15-0.22,0.28-0.39
		c0.21-0.28,0.48-0.85,0.83-1.7h0.54c-0.06,0.39-0.14,0.76-0.21,1.11c-0.32,1.53-0.53,2.81-0.65,3.84c-0.03,0.22-0.05,0.42-0.07,0.6
		l-6.1-0.18c-5.24,0-8.35,0.05-9.33,0.15c-0.3,0.02-0.62,0.03-0.96,0.03H141.12L141.12,23.67z"/>
	<path style="fill-rule:evenodd;clip-rule:evenodd;fill:#E8917B;" d="M172.88,29.5c0.21-0.14,0.39-0.21,0.55-0.21
		c0.5,0,1.07,0.29,1.71,0.86c0.11,0.1,0.19,0.17,0.25,0.21l0.08,0.08c0.26,0.22,0.53,0.33,0.82,0.33c0.41,0,0.83-0.14,1.24-0.42
		c0.41-0.28,0.74-0.68,0.99-1.17c0.34-0.7,0.59-1.48,0.74-2.35c0.16-0.87,0.24-1.92,0.24-3.16l-0.02-2.54l0.03-1.74
		c0-1.18-0.04-3.01-0.13-5.48l-0.1-6.1l0.01-3.15c0.01-0.28-0.04-0.53-0.15-0.73c-0.06-0.11-0.18-0.21-0.35-0.29
		c-0.17-0.09-0.41-0.14-0.73-0.15l-1.21-0.08c-0.38,0-0.64-0.04-0.78-0.11c-0.04-0.16-0.07-0.29-0.07-0.38l0.02-0.2
		c0.24,0,0.53,0.01,0.88,0.03c0.67,0.03,1.33,0.05,1.97,0.05c0.3,0,0.7-0.01,1.21-0.02c0.38-0.02,0.65-0.03,0.8-0.03h2.4
		c0.34,0,0.7,0.02,1.09,0.05c0,0.25-0.01,0.45-0.03,0.59c-0.94,0.04-1.53,0.11-1.78,0.2c-0.25,0.09-0.43,0.21-0.55,0.36
		c-0.07,0.1-0.11,0.29-0.11,0.57l-0.07,1.69l0.02,0.41c0.02,0.19,0.03,0.57,0.03,1.12v0.65c0,0.38,0.01,0.72,0.02,1.01
		c0.02,0.44,0.03,0.7,0.03,0.78c0,0.1-0.01,0.35-0.03,0.77c-0.01,0.12-0.02,0.22-0.02,0.31l0.19,4.53l-0.03,2.92v1.89
		c0,1.09-0.21,2.6-0.62,4.55c-0.31,1.41-0.85,2.7-1.65,3.86c-0.79,1.16-1.58,1.95-2.35,2.37c-0.78,0.42-1.8,0.64-3.08,0.64
		c-0.69,0-1.24-0.16-1.65-0.49c-0.28-0.23-0.42-0.53-0.42-0.92C172.29,30.15,172.48,29.78,172.88,29.5L172.88,29.5z"/>
	<path style="fill-rule:evenodd;clip-rule:evenodd;fill:#E8917B;" d="M202.42,23.28c0.91,0,1.86-0.13,2.84-0.38
		c0.98-0.26,1.85-0.68,2.62-1.27c0.76-0.59,1.35-1.27,1.78-2.02c0.43-0.75,0.77-1.72,1.03-2.91c0.26-1.18,0.39-2.37,0.39-3.55
		c0-1.48-0.22-2.94-0.65-4.39c-0.34-1.1-0.88-2.08-1.65-2.94c-0.76-0.86-1.68-1.53-2.75-2c-1.07-0.47-2.22-0.71-3.44-0.71
		c-0.99,0-1.96,0.16-2.9,0.49c-0.95,0.33-1.72,0.74-2.33,1.25c-0.61,0.5-1.17,1.22-1.69,2.15c-0.52,0.93-0.92,1.95-1.19,3.07
		c-0.27,1.12-0.41,2.11-0.41,2.97c0,0.9,0.13,1.92,0.41,3.06c0.27,1.14,0.64,2.13,1.12,2.97c0.47,0.84,1.05,1.58,1.74,2.22
		c0.69,0.65,1.47,1.14,2.32,1.48C200.52,23.11,201.44,23.28,202.42,23.28L202.42,23.28z M191.11,13.15c0-1.11,0.13-2.1,0.4-2.96
		c0.27-0.86,0.71-1.8,1.34-2.81c0.63-1.01,1.39-1.86,2.28-2.53c0.89-0.68,2.12-1.28,3.7-1.8c1.11-0.36,2.51-0.54,4.2-0.54
		c1.14,0,2.26,0.15,3.35,0.45c1.09,0.31,2.08,0.73,2.98,1.27c0.89,0.54,1.78,1.38,2.67,2.51c0.62,0.78,1.08,1.62,1.4,2.53
		c0.41,1.18,0.62,2.41,0.62,3.67c0,1.43-0.14,2.62-0.42,3.57c-0.28,0.94-0.74,1.88-1.39,2.8c-0.51,0.71-1.39,1.54-2.62,2.48
		c-0.83,0.63-1.85,1.14-3.08,1.52c-1.23,0.39-2.55,0.58-3.97,0.58c-1.45,0-2.73-0.17-3.86-0.51c-1.13-0.34-2.07-0.75-2.83-1.23
		c-0.75-0.48-1.53-1.2-2.33-2.14c-0.8-0.95-1.41-1.99-1.82-3.13C191.31,15.74,191.11,14.5,191.11,13.15L191.11,13.15z"/>
	<path style="fill-rule:evenodd;clip-rule:evenodd;fill:#E8917B;" d="M219.74,23.05c0.24-0.1,0.48-0.16,0.73-0.18
		c1.67-0.11,2.62-0.31,2.86-0.6c0.24-0.29,0.36-1.68,0.36-4.19l-0.02-1.71v-1.8l-0.07-1.98l0.03-1.16l-0.01-1.27v-1.5l-0.03-0.67
		l0.03-0.85c0.01-0.19,0.01-0.42,0.01-0.68c0-0.69-0.03-1.41-0.1-2.17c-0.04-0.15-0.11-0.3-0.18-0.44c-0.4-0.21-1.05-0.34-1.95-0.42
		c-0.9-0.07-1.41-0.15-1.53-0.24c-0.09-0.07-0.14-0.23-0.15-0.51h1.37l4.33,0.1c1.11,0,2.59-0.03,4.44-0.1
		c0,0.17-0.01,0.34-0.03,0.49c-0.22,0.05-0.58,0.11-1.09,0.18c-1.04,0.12-1.67,0.23-1.9,0.34c-0.14,0.05-0.24,0.15-0.31,0.28
		c-0.11,0.19-0.17,0.56-0.19,1.09l-0.08,2.11l0.07,7.26v2.87c-0.02,0.9-0.03,1.52-0.03,1.84c0,1.22,0.03,2,0.09,2.34
		c0.06,0.33,0.16,0.58,0.31,0.73c0.15,0.15,0.39,0.26,0.73,0.35c0.5,0.12,0.89,0.18,1.17,0.19c0.61,0.02,1,0.11,1.16,0.26
		c0.03,0.14,0.05,0.26,0.05,0.36v0.13c-0.99,0.03-1.72,0.05-2.19,0.05c-0.27,0-0.76-0.02-1.46-0.05l-2.26,0.03l-3.84-0.02h-0.31
		L219.74,23.05L219.74,23.05z"/>
	<path style="fill-rule:evenodd;clip-rule:evenodd;fill:#E8917B;" d="M241.8,13.26c1.17,0.07,2.49,0.1,3.98,0.1
		c0.85,0,1.59-0.02,2.23-0.08c-0.11-0.43-0.23-0.82-0.38-1.19c-0.71-1.89-1.1-2.94-1.17-3.13l-1.48-3.76l-0.16-0.29
		c-0.06,0.13-0.3,0.69-0.72,1.68c-0.69,1.7-1.2,3.02-1.5,3.96c-0.14,0.42-0.29,0.84-0.44,1.26c-0.15,0.42-0.25,0.71-0.29,0.88
		c-0.04,0.17-0.09,0.34-0.17,0.51L241.8,13.26L241.8,13.26z M234.02,23.04c0.15-0.09,0.29-0.13,0.4-0.13l0.38,0
		c0.08,0,0.21,0,0.39-0.02c0.84-0.07,1.33-0.15,1.48-0.23c0.38-0.21,0.71-0.57,0.98-1.08c0.56-1.11,1.2-2.68,1.91-4.71
		c0.34-0.97,0.55-1.56,0.64-1.76c0.27-0.65,0.53-1.34,0.78-2.05l1.53-4.29c0.24-0.67,0.81-2.22,1.73-4.63
		c0.23-0.61,0.51-1.42,0.83-2.45l0.48-0.03l0.57,0.02c0.47,0.92,0.88,1.92,1.24,2.99c0.2,0.56,0.52,1.41,0.96,2.53l2.48,6.7
		l1.32,3.63c0.7,2.07,1.15,3.34,1.37,3.81c0.22,0.47,0.42,0.78,0.6,0.94c0.05,0.04,0.25,0.11,0.61,0.19c0.35,0.09,0.6,0.15,0.74,0.2
		c0.5,0.14,0.85,0.26,1.04,0.36c0.04,0.12,0.07,0.21,0.07,0.28c0,0.05-0.02,0.14-0.05,0.24c-0.35,0.01-0.59,0.02-0.73,0.02
		c-0.55,0-1.53-0.02-2.94-0.05l-1.63-0.04l-1.97,0.03c-0.13,0-0.26-0.01-0.4-0.02c-0.14-0.01-0.25-0.02-0.35-0.02h-0.36
		c-0.12-0.01-0.23-0.04-0.33-0.1c0-0.15,0.03-0.3,0.08-0.44c0.13-0.06,0.25-0.1,0.36-0.11l1.71-0.11c0.45-0.02,0.78-0.08,1.01-0.18
		c0.07-0.19,0.1-0.34,0.1-0.44c0-0.2-0.14-0.7-0.42-1.52c-0.19-0.54-0.37-1.06-0.51-1.55c-0.15-0.49-0.73-2.1-1.74-4.83
		c-0.44-0.08-0.84-0.11-1.17-0.11l-3.49,0.03l-1.02-0.02c-0.37,0-0.78,0.03-1.22,0.08c-0.14,0.33-0.23,0.56-0.28,0.7l-1.44,4.48
		c-0.61,1.71-0.91,2.65-0.91,2.82c0,0.1,0.05,0.26,0.15,0.49c0.23,0.06,0.53,0.12,0.92,0.18l2.22,0.19c0.12,0.1,0.18,0.19,0.18,0.26
		c0,0.06-0.01,0.14-0.05,0.25c-0.49,0.01-0.86,0.01-1.12,0.01c-0.87,0-1.88-0.03-3.03-0.08c-0.53-0.02-0.91-0.03-1.14-0.03
		c-0.23,0-0.63,0.01-1.19,0.03c-0.37,0.02-0.64,0.03-0.8,0.03c-0.26,0-0.6-0.02-1.01-0.05v-0.1
		C233.96,23.28,233.98,23.17,234.02,23.04L234.02,23.04z"/>
	<path style="fill-rule:evenodd;clip-rule:evenodd;fill:#E8917B;" d="M270.09,3.39c-0.57-0.4-1.13-0.69-1.68-0.87
		c-0.8-0.25-1.76-0.38-2.87-0.38c-6.11,0-9.33,6.02-3.9,10.04c2.11,1.56,5.66,2.73,7.24,4.59c1.5,1.77,2.18,3.62,1.13,5.42v0.02
		c5.04-7.69-5.89-11.1-8.43-13.78c-3.18-3.38,2.9-7.35,6.46-4.38c0.83,0.7,1.43,1.81,1.77,3.33c0,0,0.22,0.01,0.27,0.01V3.39
		L270.09,3.39z"/>
</g>
</svg>
