<?xml version="1.0" encoding="utf-8"?>
<!-- Generator: Adobe Illustrator 25.1.0, SVG Export Plug-In . SVG Version: 6.00 Build 0)  -->
<svg version="1.1" id="Camada_1" xmlns="http://www.w3.org/2000/svg" xmlns:xlink="http://www.w3.org/1999/xlink" x="0px" y="0px"
	 viewBox="0 0 272.7 37.5" style="enable-background:new 0 0 272.7 37.5;" xml:space="preserve">
<style type="text/css">
	.st0{fill:#CCAC51;}
	.st1{fill:none;}
</style>
<g>
	<path class="st0" d="M50.6-43.6c0-1.1,0.1-2.1,0.4-3c0.3-0.9,0.7-1.6,1.2-2.2c0.5-0.6,1.2-1.1,2-1.4c0.8-0.3,1.7-0.5,2.7-0.5
		c1.1,0,2,0.2,2.8,0.5c0.8,0.3,1.5,0.8,2,1.5c0.5,0.6,0.9,1.4,1.2,2.3c0.3,0.9,0.4,1.8,0.4,2.9c0,1.1-0.1,2.1-0.4,3
		c-0.3,0.9-0.7,1.6-1.3,2.2c-0.5,0.6-1.2,1.1-2,1.4c-0.8,0.3-1.7,0.5-2.7,0.5c-1.1,0-2-0.2-2.8-0.5c-0.8-0.3-1.5-0.8-2-1.5
		c-0.5-0.6-0.9-1.4-1.2-2.3C50.7-41.6,50.6-42.6,50.6-43.6z M53.7-43.6c0,0.7,0.1,1.3,0.2,1.9c0.1,0.6,0.3,1,0.6,1.5
		c0.3,0.4,0.6,0.7,1,0.9c0.4,0.2,0.9,0.3,1.5,0.3c1,0,1.8-0.4,2.4-1.1c0.6-0.7,0.9-1.9,0.9-3.5c0-0.7-0.1-1.3-0.2-1.8
		c-0.1-0.6-0.3-1.1-0.6-1.5c-0.3-0.4-0.6-0.7-1-1c-0.4-0.2-0.9-0.3-1.5-0.3c-1,0-1.8,0.4-2.4,1.1C54-46.4,53.7-45.2,53.7-43.6z"/>
	<path class="st0" d="M73.5-50.5h2.7v8.8c0,0.9-0.1,1.7-0.4,2.3c-0.3,0.7-0.6,1.2-1.1,1.6c-0.5,0.4-1,0.7-1.7,0.9s-1.4,0.3-2.1,0.3
		c-1.8,0-3.3-0.4-4.2-1.2c-1-0.8-1.5-2-1.5-3.6v-9.2h2.9v8.6c0,1,0.2,1.8,0.7,2.2c0.5,0.4,1.1,0.6,2,0.6c0.9,0,1.5-0.2,1.9-0.7
		c0.4-0.4,0.6-1.2,0.6-2.2V-50.5z"/>
	<path class="st0" d="M78.7-50.4c0.3-0.1,0.7-0.1,1-0.1c0.4,0,0.7-0.1,1.1-0.1c0.4,0,0.7,0,1.1-0.1c0.4,0,0.7,0,1,0
		c0.7,0,1.4,0.1,2.1,0.2c0.7,0.1,1.3,0.3,1.8,0.6c0.5,0.3,1,0.7,1.3,1.2c0.3,0.5,0.5,1.1,0.5,1.9c0,1.1-0.3,2.1-0.8,2.8
		c-0.6,0.7-1.3,1.2-2.3,1.5l1,0.6l3.4,5.2h-3.4l-3.4-5.3l-1.5-0.2v5.6h-2.9V-50.4z M83.1-48.1c-0.3,0-0.6,0-0.9,0
		c-0.3,0-0.5,0-0.7,0.1v3.8h1.2c0.8,0,1.5-0.2,2-0.5c0.5-0.3,0.7-0.9,0.7-1.6c0-0.6-0.2-1-0.6-1.3C84.5-48,83.9-48.1,83.1-48.1z"/>
	<path class="st0" d="M92.6-48.9H91v-1.6h6v1.6h-1.6v10.6H97v1.6h-6v-1.6h1.6V-48.9z"/>
	<path class="st0" d="M104-42.6l0.4,2.3h0.1l0.4-2.4l2.9-7.9h3.1l-5.6,13.8h-2.1l-5.6-13.8h3.4L104-42.6z"/>
	<path class="st0" d="M111.9-50.5h8.9v2.6h-5.9v3h5.4v2.6h-5.4v3.1h6v2.6h-9V-50.5z"/>
	<path class="st0" d="M129.5-40.5c0-0.4-0.2-0.7-0.5-1c-0.3-0.2-0.8-0.5-1.3-0.6c-0.5-0.2-1.1-0.4-1.6-0.6c-0.6-0.2-1.1-0.5-1.6-0.8
		c-0.5-0.3-0.9-0.7-1.3-1.2c-0.3-0.5-0.5-1.1-0.5-1.9c0-0.7,0.1-1.3,0.4-1.8c0.2-0.5,0.6-0.9,1-1.3c0.4-0.3,1-0.6,1.6-0.8
		c0.6-0.2,1.3-0.3,2.1-0.3c0.9,0,1.7,0.1,2.5,0.2c0.8,0.2,1.4,0.4,1.9,0.6l-0.9,2.4c-0.2-0.1-0.4-0.2-0.6-0.3
		c-0.2-0.1-0.5-0.2-0.8-0.3c-0.3-0.1-0.6-0.1-1-0.2c-0.4,0-0.7-0.1-1.1-0.1c-0.7,0-1.2,0.1-1.5,0.3c-0.4,0.2-0.5,0.5-0.5,1
		c0,0.4,0.2,0.7,0.5,1c0.3,0.2,0.8,0.5,1.3,0.7c0.5,0.2,1.1,0.4,1.6,0.6c0.6,0.2,1.1,0.5,1.6,0.8c0.5,0.3,0.9,0.7,1.3,1.2
		c0.3,0.5,0.5,1.1,0.5,1.9c0,0.8-0.1,1.4-0.4,2c-0.3,0.5-0.6,1-1.1,1.4c-0.5,0.4-1.1,0.6-1.7,0.8c-0.7,0.2-1.4,0.3-2.2,0.3
		c-0.5,0-1,0-1.5-0.1c-0.5-0.1-0.9-0.1-1.3-0.2c-0.4-0.1-0.8-0.2-1.1-0.3c-0.3-0.1-0.6-0.2-0.7-0.3l1-2.5c0.1,0.1,0.3,0.2,0.6,0.3
		c0.3,0.1,0.5,0.2,0.9,0.3c0.3,0.1,0.7,0.2,1,0.2c0.4,0.1,0.7,0.1,1.1,0.1c0.9,0,1.5-0.1,2-0.4S129.5-40,129.5-40.5z"/>
	<path class="st0" d="M141.7-39.7h-4.6l-1.1,2.9h-2.9l5.4-13.8h2.1l5.4,13.8h-3.1L141.7-39.7z M137.9-42h3.1l-1.1-2.9l-0.5-2.2h-0.1
		l-0.5,2.2L137.9-42z"/>
	<path class="st0" d="M147.3-50.4c0.3-0.1,0.7-0.1,1-0.1c0.4,0,0.7-0.1,1.1-0.1c0.4,0,0.7,0,1.1-0.1s0.7,0,1,0
		c0.7,0,1.4,0.1,2.1,0.2c0.7,0.1,1.3,0.3,1.8,0.6c0.5,0.3,1,0.7,1.3,1.2c0.3,0.5,0.5,1.1,0.5,1.9c0,1.1-0.3,2.1-0.8,2.8
		s-1.3,1.2-2.3,1.5l1,0.6l3.4,5.2h-3.4l-3.4-5.3l-1.5-0.2v5.6h-2.9V-50.4z M151.7-48.1c-0.3,0-0.6,0-0.9,0c-0.3,0-0.5,0-0.7,0.1v3.8
		h1.2c0.8,0,1.5-0.2,2-0.5c0.5-0.3,0.7-0.9,0.7-1.6c0-0.6-0.2-1-0.6-1.3C153.1-48,152.5-48.1,151.7-48.1z"/>
	<path class="st0" d="M161.2-48.9h-1.6v-1.6h6v1.6h-1.6v10.6h1.6v1.6h-6v-1.6h1.6V-48.9z"/>
	<path class="st0" d="M175.1-39.7h-4.6l-1.1,2.9h-2.9l5.4-13.8h2.1l5.4,13.8h-3.1L175.1-39.7z M171.2-42h3.1l-1.1-2.9l-0.5-2.2h-0.1
		l-0.5,2.2L171.2-42z"/>
	<g>
		<path class="st0" d="M54.3-29l-1.2-2.1H53l0.3,2.1v7.1h-2.7v-13.8h2.1l5.7,7.3l1.1,2h0.1l-0.3-2v-7.2H62v13.8h-2.1L54.3-29z"/>
		<path class="st0" d="M64.1-28.7c0-1.1,0.1-2.1,0.4-3c0.3-0.9,0.7-1.6,1.2-2.2c0.5-0.6,1.2-1.1,2-1.4c0.8-0.3,1.7-0.5,2.7-0.5
			c1.1,0,2,0.2,2.8,0.5c0.8,0.3,1.5,0.8,2,1.5c0.5,0.6,0.9,1.4,1.2,2.3c0.3,0.9,0.4,1.8,0.4,2.9c0,1.1-0.1,2.1-0.4,3
			c-0.3,0.9-0.7,1.6-1.3,2.2c-0.5,0.6-1.2,1.1-2,1.4c-0.8,0.3-1.7,0.5-2.7,0.5c-1.1,0-2-0.2-2.8-0.5c-0.8-0.3-1.5-0.8-2-1.5
			c-0.5-0.6-0.9-1.4-1.2-2.3C64.2-26.7,64.1-27.7,64.1-28.7z M67.2-28.7c0,0.7,0.1,1.3,0.2,1.9c0.1,0.6,0.3,1,0.6,1.5
			c0.3,0.4,0.6,0.7,1,0.9c0.4,0.2,0.9,0.3,1.5,0.3c1,0,1.8-0.4,2.4-1.1c0.6-0.7,0.9-1.9,0.9-3.5c0-0.7-0.1-1.3-0.2-1.8
			c-0.1-0.6-0.3-1.1-0.6-1.5c-0.3-0.4-0.6-0.7-1-1c-0.4-0.2-0.9-0.3-1.5-0.3c-1,0-1.8,0.4-2.4,1.1C67.5-31.5,67.2-30.3,67.2-28.7z"
			/>
		<path class="st0" d="M88.9-32.4c0,0.3,0,0.7-0.1,1c-0.1,0.3-0.3,0.6-0.5,0.9s-0.5,0.5-0.8,0.7c-0.3,0.2-0.8,0.4-1.2,0.5v0.1
			c0.4,0,0.8,0.1,1.2,0.3c0.4,0.2,0.7,0.4,1,0.7c0.3,0.3,0.5,0.6,0.7,1c0.2,0.4,0.2,0.9,0.2,1.4c0,0.7-0.2,1.3-0.5,1.8
			c-0.3,0.5-0.8,0.9-1.3,1.3c-0.5,0.3-1.2,0.6-1.8,0.7c-0.7,0.2-1.4,0.2-2.1,0.2c-0.2,0-0.5,0-0.9,0c-0.4,0-0.8,0-1.2,0
			c-0.4,0-0.9,0-1.3-0.1c-0.5,0-0.9-0.1-1.2-0.2v-13.5c0.3,0,0.6-0.1,0.9-0.1c0.3,0,0.7-0.1,1.1-0.1c0.4,0,0.8,0,1.2-0.1
			c0.4,0,0.8,0,1.3,0c0.7,0,1.3,0,2,0.1c0.7,0.1,1.2,0.3,1.8,0.5c0.5,0.3,0.9,0.6,1.3,1.1C88.8-33.6,88.9-33.1,88.9-32.4z
			 M82.6-29.9c0.2,0,0.4,0,0.7,0c0.3,0,0.5,0,0.7,0c0.5-0.2,1-0.4,1.4-0.7c0.4-0.3,0.6-0.7,0.6-1.2c0-0.3-0.1-0.6-0.2-0.8
			c-0.1-0.2-0.3-0.4-0.6-0.5c-0.2-0.1-0.5-0.2-0.8-0.2s-0.6-0.1-0.9-0.1c-0.4,0-0.7,0-1,0s-0.6,0-0.7,0.1v3.5H82.6z M83.6-24
			c0.4,0,0.7,0,1.1-0.1c0.3-0.1,0.6-0.2,0.9-0.3c0.3-0.2,0.5-0.3,0.6-0.6c0.1-0.2,0.2-0.5,0.2-0.9c0-0.4-0.1-0.8-0.3-1
			s-0.4-0.4-0.7-0.6c-0.3-0.1-0.6-0.2-1-0.2c-0.4,0-0.7,0-1.1,0h-1.6v3.6c0.1,0,0.2,0,0.3,0.1c0.1,0,0.3,0,0.5,0c0.2,0,0.4,0,0.6,0
			S83.4-24,83.6-24z"/>
		<path class="st0" d="M91.4-35.5c0.3-0.1,0.7-0.1,1-0.1c0.4,0,0.7-0.1,1.1-0.1c0.4,0,0.7,0,1.1-0.1s0.7,0,1,0
			c0.7,0,1.4,0.1,2.1,0.2c0.7,0.1,1.3,0.3,1.8,0.6c0.5,0.3,1,0.7,1.3,1.2c0.3,0.5,0.5,1.1,0.5,1.9c0,1.1-0.3,2.1-0.8,2.8
			c-0.6,0.7-1.3,1.2-2.3,1.5l1,0.6l3.4,5.2h-3.4l-3.4-5.3l-1.5-0.2v5.6h-2.9V-35.5z M95.9-33.3c-0.3,0-0.6,0-0.9,0
			c-0.3,0-0.5,0-0.7,0.1v3.8h1.2c0.8,0,1.5-0.2,2-0.5c0.5-0.3,0.7-0.9,0.7-1.6c0-0.6-0.2-1-0.6-1.3C97.2-33.1,96.7-33.3,95.9-33.3z"
			/>
		<path class="st0" d="M104.3-35.6h8.9v2.6h-5.9v3h5.4v2.6h-5.4v3.1h6v2.6h-9V-35.6z"/>
		<path class="st0" d="M114.6-24.4l6.3-7.8l1.1-0.8h-7.4v-2.6H125v2.6l-6.3,7.9l-1.1,0.7h7.4v2.6h-10.4V-24.4z"/>
		<path class="st0" d="M133.7-24.8h-4.6l-1.1,2.9H125l5.4-13.8h2.1l5.4,13.8h-3.1L133.7-24.8z M129.9-27.1h3.1l-1.1-2.9l-0.5-2.2
			h-0.1l-0.5,2.2L129.9-27.1z"/>
	</g>
</g>
<image style="overflow:visible;" width="1080" height="1080" xlink:href="D:\P_R_O_J_E_C_T_OS\BRANDS\OURIVESARIA NOBREZA\LOGO.png"  transform="matrix(3.772522e-02 0 0 3.772522e-02 7.0186 -1.1718)">
</image>
<path class="st1" d="M36,17.8c0,2.8-0.9,6.1-1.5,8.1c-0.1,0.4,2.6,1.3,2.4,1.8C36,29,33.4,27.9,32.2,29c-2.9,2.6-6,4.2-10.1,4.2
	c-6.5,0-11.1-3.9-13.5-9.4c-0.9-2.1-1.9-4.2-1.9-6.8c0-9.3,6.4-17.6,15.4-17.6S36,8.4,36,17.8z"/>
<path class="st1" d="M200.2,212.9c0,2.7-0.9,5.9-1.5,7.8c-0.1,0.4,2.6,1.3,2.3,1.7c-0.8,1.3-3.3,0.3-4.5,1.3c-2.8,2.5-5.8,4-9.7,4
	c-8.8,0.1-14-7.7-14.8-15.6C172.6,189.8,200.9,189.5,200.2,212.9z"/>
<g>
	<path class="st0" d="M49.1,11.2c0-4.1,3.2-7.1,7.6-7.1s7.6,3,7.6,7.1c0,4.1-3.2,7.1-7.6,7.1S49.1,15.3,49.1,11.2z M60.4,11.2
		c0-2.4-1.6-3.9-3.7-3.9c-2.1,0-3.7,1.5-3.7,3.9c0,2.4,1.6,3.9,3.7,3.9C58.8,15.1,60.4,13.6,60.4,11.2z"/>
	<path class="st0" d="M66.2,12V4.4h3.9v7.5c0,2.3,1,3.3,2.6,3.3c1.6,0,2.6-0.9,2.6-3.3V4.4h3.8V12c0,4.1-2.4,6.4-6.4,6.4
		C68.6,18.3,66.2,16,66.2,12z"/>
	<path class="st0" d="M87.7,14.4h-2.1v3.6h-3.9V4.4H88c3.7,0,6.1,1.9,6.1,5.1c0,2-1,3.5-2.7,4.3l3,4.3h-4.2L87.7,14.4z M87.8,7.4
		h-2.2v4h2.2c1.6,0,2.4-0.7,2.4-2C90.2,8.2,89.4,7.4,87.8,7.4z"/>
	<path class="st0" d="M96.2,4.4h3.9v13.7h-3.9V4.4z"/>
	<path class="st0" d="M116.7,4.4l-5.9,13.7H107l-5.9-13.7h4.2l3.7,8.9l3.8-8.9H116.7z"/>
	<path class="st0" d="M128.5,15.1v3h-11V4.4h10.7v3h-6.9v2.3h6.1v2.9h-6.1v2.5H128.5z"/>
	<path class="st0" d="M129.7,16.8L131,14c1.2,0.8,2.9,1.4,4.5,1.4c1.6,0,2.2-0.5,2.2-1.1c0-2.2-7.8-0.6-7.8-5.7c0-2.4,2-4.4,6.1-4.4
		c1.8,0,3.6,0.4,5,1.2l-1.2,2.9c-1.3-0.7-2.6-1.1-3.8-1.1c-1.6,0-2.2,0.5-2.2,1.2c0,2.1,7.8,0.5,7.8,5.6c0,2.4-2,4.4-6.1,4.4
		C133.2,18.3,131,17.7,129.7,16.8z"/>
	<path class="st0" d="M152.5,15.4h-5.8l-1.1,2.7h-4l6-13.7h3.8l6.1,13.7h-4L152.5,15.4z M151.4,12.5l-1.8-4.4l-1.8,4.4H151.4z"/>
	<path class="st0" d="M164.7,14.4h-2.1v3.6h-3.9V4.4h6.3c3.7,0,6.1,1.9,6.1,5.1c0,2-1,3.5-2.7,4.3l3,4.3h-4.2L164.7,14.4z
		 M164.8,7.4h-2.2v4h2.2c1.6,0,2.4-0.7,2.4-2C167.2,8.2,166.4,7.4,164.8,7.4z"/>
	<path class="st0" d="M173.2,4.4h3.9v13.7h-3.9V4.4z"/>
	<path class="st0" d="M189,15.4h-5.8l-1.1,2.7h-4l6-13.7h3.8l6.1,13.7h-4L189,15.4z M187.9,12.5l-1.8-4.4l-1.8,4.4H187.9z"/>
</g>
<path class="st0" d="M62.8,20.3V34h-3.2l-6-7.3V34h-3.8V20.3H53l6,7.3v-7.3H62.8z"/>
<path class="st0" d="M64.9,27.2c0-4.1,3.2-7.1,7.6-7.1c4.4,0,7.6,3,7.6,7.1c0,4.1-3.2,7.1-7.6,7.1C68.1,34.3,64.9,31.3,64.9,27.2z
	 M76.2,27.2c0-2.4-1.6-3.9-3.7-3.9c-2.1,0-3.7,1.5-3.7,3.9c0,2.4,1.6,3.9,3.7,3.9C74.6,31.1,76.2,29.6,76.2,27.2z"/>
<path class="st0" d="M95.2,30.3c0,2.4-2,3.8-5.6,3.8h-7.4V20.3h7c3.6,0,5.4,1.5,5.4,3.6c0,1.3-0.7,2.4-1.8,3
	C94.2,27.4,95.2,28.6,95.2,30.3z M86,23.1v2.6h2.7c1.3,0,2-0.5,2-1.3c0-0.9-0.7-1.3-2-1.3H86z M91.3,29.9c0-0.9-0.7-1.4-2-1.4H86
	v2.8h3.2C90.6,31.2,91.3,30.8,91.3,29.9z"/>
<path class="st0" d="M103.2,30.4h-2.1V34h-3.9V20.3h6.3c3.7,0,6.1,1.9,6.1,5.1c0,2-1,3.5-2.7,4.3l3,4.3h-4.2L103.2,30.4z
	 M103.2,23.4h-2.2v4h2.2c1.6,0,2.4-0.7,2.4-2C105.6,24.1,104.8,23.4,103.2,23.4z"/>
<path class="st0" d="M122.7,31v3h-11V20.3h10.7v3h-6.9v2.3h6.1v2.9h-6.1V31H122.7z"/>
<path class="st0" d="M136.4,31V34h-12.3v-2.4l6.9-8.2h-6.7v-3.1h11.8v2.4l-6.9,8.2H136.4z"/>
<path class="st0" d="M147.3,31.4h-5.8l-1.1,2.7h-4l6-13.7h3.8l6.1,13.7h-4L147.3,31.4z M146.2,28.5l-1.8-4.4l-1.8,4.4H146.2z"/>
</svg>
