<?xml version="1.0" encoding="utf-8"?>
<!-- Generator: Adobe Illustrator 25.0.0, SVG Export Plug-In . SVG Version: 6.00 Build 0)  -->
<svg version="1.1" id="Layer_1" xmlns="http://www.w3.org/2000/svg" xmlns:xlink="http://www.w3.org/1999/xlink" x="0px" y="0px"
	 width="141.61px" height="141.61px" viewBox="0 0 141.61 141.61" style="enable-background:new 0 0 141.61 141.61;"
	 xml:space="preserve">
<g>
	<g id="XMLID_1060_">
		<g id="XMLID_1068_">
			<path style="fill:#BE1823;" d="M77.56,114.44c-2,0-3.89-0.29-5-1.4c-0.14-0.14-0.14-0.36,0-0.49c0.14-0.14,0.36-0.14,0.49,0
				c1.54,1.54,5.1,1.24,7.97,1.01c0.93-0.08,1.81-0.15,2.55-0.16c4.95-0.03,9.91-0.06,14.86-0.09l4.57-0.03
				c10.57-0.07,23.07-0.09,35.67,0.21c0.19,0,0.34,0.16,0.34,0.36c0,0.19-0.16,0.34-0.35,0.34c0,0-0.01,0-0.01,0
				c-12.59-0.31-25.08-0.28-35.65-0.21L98.42,114c-4.95,0.03-9.91,0.06-14.86,0.09c-0.71,0-1.57,0.08-2.49,0.15
				C79.95,114.34,78.74,114.44,77.56,114.44z"/>
		</g>
		<g id="XMLID_1067_">
			<path style="fill:#BE1823;" d="M4.16,114.18c-0.19,0-0.34-0.15-0.35-0.34c-0.01-0.19,0.14-0.35,0.34-0.36
				c15.28-0.55,30.84-0.47,45.89-0.4c5.26,0.03,10.53,0.05,15.79,0.05c0.19,0,0.35,0.16,0.35,0.35s-0.16,0.35-0.35,0.35
				c-5.26,0-10.53-0.03-15.79-0.05c-15.04-0.07-30.59-0.15-45.86,0.4C4.17,114.18,4.17,114.18,4.16,114.18z"/>
		</g>
		<g id="XMLID_1066_">
			<path style="fill:#BE1823;" d="M68.66,114.51c-0.74,0-1.39-0.2-1.86-0.61c-0.75-0.66-1.33-2.07,0.11-5.1
				c0.08-0.17,0.29-0.25,0.46-0.16c0.17,0.08,0.25,0.29,0.16,0.46c-0.98,2.05-1.08,3.57-0.28,4.27c0.86,0.76,2.71,0.52,4.4-0.57
				c1.89-1.22,3.6-3.54,2.9-6.5l-5.89,2.87c-0.12,0.06-0.26,0.04-0.37-0.04l-2.6-2.06c-0.15-0.12-0.18-0.34-0.06-0.49
				c0.12-0.15,0.34-0.17,0.49-0.06l2.43,1.92l6.07-2.96c0.09-0.05,0.2-0.05,0.29-0.01c0.09,0.04,0.16,0.12,0.19,0.22
				c1.07,3.51-0.89,6.27-3.08,7.68C70.89,114.13,69.68,114.51,68.66,114.51z"/>
		</g>
		<g id="XMLID_1064_">
			<path style="fill:#BE1823;" d="M65.48,111.74c-0.02,0-0.04,0-0.06,0c-13.49-2.25-28.14-1.69-42.31-1.16
				c-6.05,0.23-12.31,0.47-18.26,0.47c-0.19,0-0.35-0.16-0.35-0.35c0-0.19,0.16-0.35,0.35-0.35c5.94,0,12.19-0.24,18.23-0.46
				c14.21-0.54,28.89-1.09,42.45,1.17c0.19,0.03,0.32,0.21,0.29,0.4C65.8,111.62,65.65,111.74,65.48,111.74z"/>
		</g>
		<g id="XMLID_1063_">
			<path style="fill:#BE1823;" d="M122.47,110.97c-7.88,0-15.74-0.16-23.46-0.31c-7.68-0.15-15.63-0.31-23.43-0.31
				c-0.19,0-0.35-0.16-0.35-0.35c0-0.19,0.16-0.35,0.35-0.35c7.81,0,15.76,0.16,23.44,0.31c12.99,0.26,26.42,0.53,39.6,0.04
				c0.2,0,0.35,0.14,0.36,0.34c0.01,0.19-0.14,0.35-0.34,0.36C133.29,110.9,127.88,110.97,122.47,110.97z"/>
		</g>
		<g id="XMLID_1062_">
			<path style="fill:#BE1823;" d="M70.01,108.26c-0.18,0-0.34-0.14-0.35-0.33c-0.26-4.48,1.55-12.27,5.53-14.62
				c0.38-0.23,1.55-0.91,2.23-0.3c1.18,1.06-0.34,5.18-3.17,11.49c-0.36,0.8-0.64,1.43-0.79,1.8c-0.07,0.18-0.27,0.27-0.45,0.2
				c-0.18-0.07-0.27-0.27-0.2-0.45c0.15-0.38,0.44-1.02,0.8-1.83c1.2-2.67,4.38-9.76,3.34-10.69c-0.19-0.17-0.72-0.03-1.41,0.38
				c-3.87,2.29-5.41,10.2-5.19,13.98c0.01,0.19-0.14,0.36-0.33,0.37C70.03,108.26,70.02,108.26,70.01,108.26z"/>
		</g>
		<g id="XMLID_1061_">
			<path style="fill:#BE1823;" d="M70,107.97c-0.11,0-0.21-0.05-0.28-0.14l-2.82-3.75c-0.24-0.36-0.6-0.96-1.05-1.72
				c-1.51-2.51-5.5-9.18-6.86-8.85c-0.25,0.06-0.43,0.57-0.49,1.38c-0.34,4.54,4.34,9.62,7.6,11.62c0.16,0.1,0.22,0.32,0.12,0.48
				c-0.1,0.16-0.32,0.21-0.48,0.12c-3.41-2.09-8.29-7.44-7.93-12.27c0.03-0.44,0.13-1.79,1.03-2c1.53-0.36,4.06,3.24,7.62,9.17
				c0.45,0.75,0.81,1.34,1.02,1.67l2.81,3.73c0.12,0.15,0.09,0.37-0.07,0.49C70.15,107.95,70.07,107.97,70,107.97z"/>
		</g>
	</g>
	<g id="XMLID_1037_">
		<g id="XMLID_1059_">
			<path style="fill:#E8927C;" d="M118.09,22.73c-0.34,0-0.69,0-1.04-0.02c-1.65-0.06-3.3-0.12-4.95-0.17
				c-4.09-0.13-8.32-0.27-12.47-0.56c-2.23-0.16-4.49-0.46-6.67-0.75c-3.06-0.4-6.23-0.82-9.34-0.86
				c-6.55-0.08-13.21,0.15-19.66,0.36c-2.62,0.09-5.23,0.18-7.85,0.24c-1.18,0.03-2.4,0.06-3.16-0.69
				c-0.47-0.46-0.69-1.15-0.68-2.11c0-0.19,0.14-0.35,0.35-0.34c0.19,0,0.35,0.16,0.34,0.35c-0.01,0.75,0.14,1.28,0.47,1.6
				c0.55,0.55,1.62,0.52,2.66,0.49c2.62-0.07,5.23-0.16,7.85-0.24c6.45-0.22,13.13-0.44,19.69-0.36c3.15,0.04,6.34,0.46,9.42,0.87
				c2.17,0.29,4.42,0.58,6.63,0.74c4.14,0.3,8.36,0.43,12.45,0.56c1.65,0.05,3.31,0.11,4.96,0.17c0.63,0.02,1.26,0.02,1.89,0.01
				c0.3,0,0.59-0.01,0.89-0.01c0.19,0,0.35,0.16,0.35,0.35s-0.16,0.35-0.35,0.35c-0.29,0-0.59,0-0.88,0.01
				C118.68,22.73,118.38,22.73,118.09,22.73z"/>
		</g>
		<g id="XMLID_1058_">
			<path style="fill:#E8927C;" d="M45.64,33.87c-0.02,0-0.04,0-0.06,0c-0.66-0.11-1.32-0.24-1.98-0.36
				c-1.4-0.26-2.84-0.54-4.26-0.66c-3.96-0.33-7.99-0.63-11.89-0.93c-5.01-0.38-10.19-0.77-15.29-1.22
				c-4.15-0.37-8.2-1.37-9.71-6.13c-0.06-0.18,0.04-0.38,0.23-0.44c0.18-0.06,0.38,0.04,0.44,0.23c1.31,4.13,4.59,5.25,9.11,5.65
				c5.09,0.45,10.27,0.84,15.28,1.22c3.9,0.29,7.93,0.6,11.89,0.93c1.46,0.12,2.92,0.4,4.33,0.67c0.66,0.12,1.31,0.25,1.97,0.36
				c0.19,0.03,0.32,0.21,0.29,0.4C45.96,33.75,45.81,33.87,45.64,33.87z"/>
		</g>
		<g id="XMLID_1057_">
			<path style="fill:#E8927C;" d="M4.18,22.72c-0.16,0-0.31-0.11-0.34-0.28c-0.04-0.19,0.08-0.37,0.27-0.41
				c0.85-0.18,1.7-0.37,2.55-0.57c1.9-0.44,3.87-0.9,5.85-1.12c2.9-0.32,6.11-0.45,9.79-0.38c5.45,0.1,10.99,0.28,16.35,0.46
				c2.22,0.07,4.43,0.14,6.65,0.21c0.19,0.01,0.34,0.17,0.34,0.36c-0.01,0.19-0.17,0.36-0.36,0.34c-2.22-0.07-4.44-0.14-6.65-0.21
				c-5.35-0.17-10.89-0.36-16.34-0.46c-3.66-0.07-6.83,0.05-9.7,0.37c-1.93,0.21-3.88,0.67-5.77,1.11c-0.86,0.2-1.71,0.4-2.57,0.58
				C4.23,22.72,4.2,22.72,4.18,22.72z"/>
		</g>
		<g id="XMLID_1056_">
			<path style="fill:#E8927C;" d="M70.03,71.15c-0.02,0-0.03,0-0.05,0c-8.88-1.26-15.81-6.45-21.61-11.21
				c-0.04-0.03-0.07-0.07-0.09-0.12c-1.89-4,0.04-7.3,2.01-10.08c1.74-2.46,3.67-4.83,5.54-7.13c0.82-1.01,1.64-2.01,2.44-3.03
				c0.12-0.15,0.34-0.18,0.49-0.06c0.15,0.12,0.18,0.34,0.06,0.49c-0.81,1.02-1.63,2.03-2.45,3.03c-1.86,2.29-3.78,4.65-5.51,7.09
				c-1.92,2.73-3.66,5.69-1.98,9.32c5.72,4.69,12.54,9.78,21.21,11.01c0.19,0.03,0.32,0.2,0.3,0.39
				C70.35,71.02,70.2,71.15,70.03,71.15z"/>
		</g>
		<g id="XMLID_1055_">
			<path style="fill:#E8927C;" d="M70.38,77.77c-0.19,0-0.35-0.16-0.35-0.35c0-0.1-0.01-0.2-0.02-0.31
				c-0.02-0.27-0.05-0.57,0.06-0.85c3.37-8.88,7.82-19.12,15.34-27.67l0.05-0.06c2.6-2.96,5.29-6.02,5.83-10.17
				c0.03-0.19,0.2-0.33,0.39-0.3c0.19,0.03,0.33,0.2,0.3,0.39c-0.57,4.37-3.32,7.51-5.99,10.54l-0.05,0.06
				c-7.44,8.47-11.87,18.63-15.21,27.46c-0.05,0.13-0.03,0.33-0.01,0.55c0.01,0.12,0.02,0.25,0.02,0.37
				C70.73,77.61,70.57,77.77,70.38,77.77z"/>
		</g>
		<g id="XMLID_1054_">
			<path style="fill:#E8927C;" d="M97.08,66.58c-0.72,0-1.42-0.21-2.11-0.41c-0.32-0.1-0.65-0.19-0.97-0.26
				c-0.19-0.04-0.31-0.23-0.26-0.42s0.23-0.31,0.42-0.26c0.34,0.08,0.68,0.17,1.02,0.27c0.71,0.21,1.38,0.4,2.03,0.38
				c1.89-0.07,3.79-0.12,5.69-0.16c5.23-0.13,10.64-0.25,15.86-0.99c7.35-1.03,12.78-4.33,16.15-9.79c0.1-0.16,0.32-0.21,0.48-0.11
				c0.16,0.1,0.21,0.32,0.11,0.48c-3.48,5.65-9.08,9.06-16.64,10.12c-5.26,0.74-10.69,0.87-15.94,0.99
				c-1.89,0.05-3.79,0.09-5.68,0.16C97.17,66.58,97.13,66.58,97.08,66.58z"/>
		</g>
		<g id="XMLID_1053_">
			<path style="fill:#E8927C;" d="M74.5,82.41c-0.06,0-0.12-0.01-0.17-0.04l-3.42-1.86c-0.17-0.09-0.23-0.3-0.14-0.47
				c0.09-0.17,0.3-0.23,0.47-0.14l3.29,1.79c3.88-1.25,11.81-9.32,14.72-13.2c1.23-1.63,2.39-3.36,3.52-5.03
				c2.62-3.89,5.32-7.9,9.05-11.08c1.79-1.52,3.46-3.26,5.07-4.94c0.75-0.78,1.5-1.56,2.26-2.32c0.14-0.14,0.36-0.14,0.49,0
				c0.14,0.14,0.14,0.36,0,0.49c-0.76,0.76-1.5,1.53-2.25,2.31c-1.63,1.69-3.31,3.44-5.12,4.99c-3.66,3.12-6.34,7.09-8.93,10.94
				c-1.13,1.68-2.3,3.42-3.54,5.06c-3.08,4.1-11.2,12.33-15.22,13.49C74.56,82.41,74.53,82.41,74.5,82.41z"/>
		</g>
		<g id="XMLID_1052_">
			<path style="fill:#E8927C;" d="M115.39,53.75c-1.66,0-3.43-0.13-5.34-0.38c-0.96-0.13-1.93-0.3-2.87-0.46
				c-0.44-0.08-0.88-0.15-1.32-0.23c-0.19-0.03-0.32-0.21-0.29-0.4c0.03-0.19,0.21-0.32,0.4-0.29c0.44,0.07,0.89,0.15,1.33,0.23
				c0.93,0.16,1.89,0.33,2.84,0.46c7.7,1.02,13.21-0.03,17.87-3.41c0.16-0.11,0.37-0.08,0.49,0.08c0.11,0.16,0.08,0.37-0.08,0.49
				C124.76,52.48,120.62,53.75,115.39,53.75z"/>
		</g>
		<g id="XMLID_1051_">
			<path style="fill:#E8927C;" d="M81.37,80.24c-0.39,0-0.81-0.11-1.22-0.22c-0.27-0.07-0.53-0.14-0.77-0.17
				c-0.19-0.03-0.32-0.2-0.3-0.39c0.03-0.19,0.2-0.32,0.39-0.3c0.28,0.04,0.56,0.11,0.84,0.19c0.52,0.14,1.06,0.28,1.38,0.13
				c0.66-0.3,1.33-0.6,2-0.89c4.5-1.98,9.15-4.03,12.17-8.34c0.11-0.16,0.33-0.2,0.49-0.09c0.16,0.11,0.2,0.33,0.09,0.49
				c-3.12,4.47-7.87,6.56-12.46,8.58c-0.67,0.29-1.33,0.59-2,0.89C81.8,80.21,81.59,80.24,81.37,80.24z"/>
		</g>
		<g id="XMLID_1050_">
			<path style="fill:#E8927C;" d="M66.2,54.08c-0.07,0-0.14-0.02-0.2-0.06c-0.16-0.11-0.2-0.32-0.09-0.48
				c1.71-2.52,2.36-4.37,2.07-5.84c-0.22-1.1-1-2.08-2.39-2.98c-6.52-4.25-7.95-10.33-8.11-18.16c0-0.19,0.15-0.35,0.34-0.36
				c0.2-0.02,0.35,0.15,0.36,0.34c0.15,7.6,1.53,13.5,7.79,17.59c1.55,1.01,2.43,2.13,2.69,3.43c0.34,1.68-0.33,3.65-2.18,6.36
				C66.42,54.02,66.31,54.08,66.2,54.08z"/>
		</g>
		<g id="XMLID_1049_">
			<path style="fill:#E8927C;" d="M88.84,43.27c-0.12,0-0.23-0.06-0.3-0.16c-3.3-5.33-7.93-9.5-14.15-12.77
				c-0.17-0.09-0.24-0.3-0.15-0.47c0.09-0.17,0.3-0.24,0.47-0.15c6.33,3.32,11.05,7.58,14.42,13.02c0.1,0.16,0.05,0.38-0.11,0.48
				C88.97,43.26,88.91,43.27,88.84,43.27z"/>
		</g>
		<g id="XMLID_1048_">
			<path style="fill:#E8927C;" d="M69.68,80.55c-0.02,0-0.05,0-0.07-0.01l-1.54-0.33c-1.11-0.24-2.23-0.47-3.34-0.72
				c-4.95-1.11-5.25-1.36-6.53-5.46c-0.06-0.18,0.05-0.38,0.23-0.44c0.18-0.06,0.38,0.05,0.44,0.23c1.2,3.84,1.31,3.94,6.02,4.99
				c1.11,0.25,2.22,0.48,3.33,0.72l1.54,0.33c0.19,0.04,0.31,0.23,0.27,0.41C69.99,80.44,69.84,80.55,69.68,80.55z"/>
		</g>
		<g id="XMLID_1047_">
			<path style="fill:#E8927C;" d="M68.29,76.37c-0.03,0-0.07,0-0.1-0.01c-0.86-0.25-1.73-0.51-2.59-0.76
				c-1.89-0.56-3.84-1.13-5.77-1.67c-6.58-1.83-7.64-3.24-7.57-10.1c0-0.19,0.16-0.35,0.35-0.35c0,0,0,0,0,0
				c0.19,0,0.35,0.16,0.35,0.35c-0.07,6.61,0.73,7.66,7.06,9.42c1.93,0.54,3.89,1.11,5.78,1.67c0.86,0.26,1.73,0.51,2.59,0.76
				c0.19,0.05,0.29,0.25,0.24,0.43C68.58,76.27,68.44,76.37,68.29,76.37z"/>
		</g>
		<g id="XMLID_1046_">
			<path style="fill:#BE1823;" d="M48.5,35.81c-0.68,0-1.26-0.19-1.71-0.56c-0.81-0.66-1.18-1.9-1.07-3.5
				c0.18-2.4,0.65-4.81,1.1-7.14c0.19-1,0.39-2,0.56-3c0.03-0.19,0.21-0.32,0.4-0.28c0.19,0.03,0.32,0.21,0.28,0.4
				c-0.17,1.01-0.37,2.01-0.56,3.01c-0.45,2.31-0.91,4.7-1.09,7.06c-0.06,0.79-0.03,2.23,0.81,2.91c0.55,0.45,1.39,0.52,2.49,0.21
				c0.19-0.05,0.38,0.06,0.43,0.24c0.05,0.19-0.06,0.38-0.24,0.43C49.4,35.74,48.93,35.81,48.5,35.81z"/>
		</g>
		<g id="XMLID_1045_">
			<path style="fill:#BE1823;" d="M49.82,35.61c-0.15,0-0.29-0.1-0.34-0.26c-1.46-5.28-0.39-10.32,0.7-14.12
				c0.02-0.09,0.08-0.16,0.16-0.2c0.01-0.01,1.42-0.85,1.98-1.64c0.11-0.16,0.33-0.19,0.49-0.08c0.16,0.11,0.19,0.33,0.08,0.49
				c-0.55,0.78-1.7,1.53-2.08,1.77c-1.05,3.7-2.06,8.56-0.66,13.62c0.05,0.19-0.06,0.38-0.24,0.43
				C49.88,35.61,49.85,35.61,49.82,35.61z"/>
		</g>
		<g id="XMLID_1044_">
			<path style="fill:#E8927C;" d="M87.8,71.84c-0.18,0-0.33-0.14-0.35-0.32c-0.01-0.19,0.13-0.36,0.32-0.37
				c3.72-0.27,6.46-2.4,9.36-4.65l0.2-0.16c0.15-0.12,0.37-0.09,0.49,0.06c0.12,0.15,0.09,0.37-0.06,0.49l-0.21,0.16
				c-2.85,2.21-5.8,4.5-9.74,4.79C87.82,71.84,87.81,71.84,87.8,71.84z"/>
		</g>
		<g id="XMLID_1043_">
			<path style="fill:#BE1823;" d="M48.73,18.2c-0.09,0-0.17-0.03-0.24-0.09l-3.79-3.5l-0.68-0.68L32.56,7.01
				c-0.11-0.07-0.18-0.19-0.17-0.32l0.06-0.82c0.01-0.09,0.05-0.18,0.13-0.24c0.07-0.06,0.16-0.09,0.26-0.08
				c0.42,0.05,0.88,0.05,1.32,0.05c1.04,0.01,2.11,0.02,2.91,0.53c3.07,1.99,6.08,4.17,8.99,6.28c1.09,0.79,2.17,1.58,3.27,2.36
				c0.16,0.11,0.19,0.33,0.08,0.49c-0.11,0.16-0.33,0.19-0.49,0.08c-1.09-0.78-2.18-1.57-3.27-2.36c-2.9-2.11-5.91-4.28-8.96-6.26
				c-0.63-0.41-1.55-0.41-2.54-0.42c-0.34,0-0.69-0.01-1.04-0.03L33.1,6.52l11.33,6.84c0.02,0.01,0.05,0.03,0.07,0.05l0.7,0.7
				l3.63,3.35l0.32-0.09c0.74-3.79,2.73-6.44,6.06-8.07c0.11-0.06,0.24-0.05,0.35,0.02c0.1,0.07,0.16,0.19,0.15,0.31
				c-0.12,1.72-1.15,2.95-2.15,4.14c-0.9,1.07-1.75,2.08-1.93,3.4c-0.02,0.14-0.12,0.25-0.25,0.29l-2.55,0.72
				C48.8,18.2,48.76,18.2,48.73,18.2z M54.91,10.24c-2.67,1.5-4.31,3.77-5.01,6.92l1.07-0.3c0.26-1.41,1.17-2.49,2.05-3.53
				C53.85,12.35,54.63,11.41,54.91,10.24z"/>
		</g>
		<g id="XMLID_1042_">
			<path style="fill:#E8927C;" d="M58.53,37c-0.02,0-0.04,0-0.06-0.01l-8.01-1.39c-0.19-0.03-0.32-0.21-0.28-0.4
				c0.03-0.19,0.21-0.32,0.4-0.28l8.01,1.39c0.19,0.03,0.32,0.21,0.28,0.4C58.85,36.88,58.7,37,58.53,37z"/>
		</g>
		<g id="XMLID_1041_">
			<path style="fill:#E8927C;" d="M75.26,58.26c-0.04,0-0.08-0.01-0.13-0.02c-0.47-0.18-0.94-0.36-1.42-0.53
				c-1.03-0.38-2.1-0.78-3.12-1.23c-2.76-1.22-5.54-2.49-8.24-3.73l-3.27-1.49c-0.17-0.08-0.25-0.29-0.17-0.46
				c0.08-0.18,0.29-0.25,0.46-0.17l3.27,1.49c2.69,1.23,5.48,2.5,8.23,3.72c1.01,0.45,2.06,0.84,3.08,1.21
				c0.48,0.18,0.95,0.35,1.42,0.53c0.18,0.07,0.27,0.27,0.2,0.45C75.53,58.17,75.4,58.26,75.26,58.26z"/>
		</g>
		<g id="XMLID_1040_">
			<path style="fill:#E8927C;" d="M82.57,49.55c-0.1,0-0.2-0.04-0.27-0.13l-4.88-5.92c-0.12-0.15-0.1-0.37,0.05-0.49
				c0.15-0.12,0.37-0.1,0.49,0.05l4.88,5.92c0.12,0.15,0.1,0.37-0.05,0.49C82.73,49.52,82.65,49.55,82.57,49.55z"/>
		</g>
		<g id="XMLID_1039_">
			<path style="fill:#BE1823;" d="M47.27,21.99c-0.1,0-0.2-0.04-0.27-0.12l-0.79-0.93c-0.09-0.11-0.11-0.26-0.05-0.38l1.25-2.51
				c0.04-0.08,0.11-0.14,0.2-0.17l1-0.34l2.57-0.73c0.07-0.02,0.14-0.02,0.2,0c0.04,0.01,1.08,0.36,1.52,1.25
				c0.24,0.5,0.25,1.05,0.03,1.65c-0.03,0.09-0.11,0.17-0.2,0.2l-5.34,2.05C47.35,21.98,47.31,21.99,47.27,21.99z M46.89,20.65
				l0.48,0.57l4.96-1.91c0.1-0.36,0.09-0.67-0.05-0.96c-0.24-0.5-0.79-0.77-1.01-0.86l-2.44,0.69l-0.85,0.28L46.89,20.65z
				 M52.61,19.58L52.61,19.58L52.61,19.58z"/>
		</g>
		<g id="XMLID_1038_">
			<path style="fill:#E8927C;" d="M68.64,55.12c-0.19,0-0.35-0.16-0.35-0.35v-2.44c0-0.19,0.16-0.35,0.35-0.35
				c0.19,0,0.35,0.16,0.35,0.35v2.44C68.98,54.96,68.83,55.12,68.64,55.12z"/>
		</g>
	</g>
	<g id="XMLID_1036_">
		<path style="fill:#E8927C;" d="M139,136.07H4.04v-16.96H139V136.07z M4.73,135.37H138.3v-15.56H4.73V135.37z"/>
	</g>
	
		<text id="XMLID_1035_" transform="matrix(1 0 0 1 6.4756 131.1346)" style="fill:#020203; font-family:'Montserrat-Regular'; font-size:5.5745px;">0</text>
	<g id="XMLID_1034_">
		<path style="fill:#020203;" d="M26.43,127.23v3.9h-0.4v-3.55h-0.92v-0.36H26.43z"/>
	</g>
	<g id="XMLID_1033_">
		<path style="fill:#020203;" d="M46.36,130.78v0.36h-2.74v-0.28l1.62-1.59c0.2-0.2,0.34-0.37,0.42-0.52
			c0.07-0.15,0.11-0.29,0.11-0.44c0-0.23-0.08-0.41-0.24-0.54c-0.16-0.13-0.38-0.19-0.68-0.19c-0.46,0-0.81,0.14-1.06,0.43
			l-0.28-0.24c0.15-0.18,0.35-0.32,0.58-0.41c0.24-0.1,0.5-0.14,0.8-0.14c0.4,0,0.71,0.09,0.95,0.28c0.23,0.19,0.35,0.45,0.35,0.77
			c0,0.2-0.04,0.39-0.13,0.58s-0.26,0.4-0.51,0.64l-1.33,1.3H46.36z"/>
	</g>
	<g id="XMLID_1032_">
		<path style="fill:#020203;" d="M65.7,129.24c0.21,0.2,0.32,0.46,0.32,0.78c0,0.22-0.05,0.42-0.16,0.59
			c-0.11,0.17-0.27,0.31-0.48,0.41c-0.21,0.1-0.47,0.15-0.78,0.15c-0.28,0-0.55-0.05-0.8-0.14c-0.25-0.09-0.45-0.21-0.61-0.36
			l0.19-0.32c0.13,0.13,0.3,0.24,0.52,0.33c0.22,0.08,0.45,0.13,0.69,0.13c0.32,0,0.57-0.07,0.74-0.21
			c0.17-0.14,0.26-0.33,0.26-0.58c0-0.24-0.09-0.43-0.26-0.57s-0.44-0.21-0.79-0.21h-0.28v-0.3l1.08-1.35h-2v-0.36h2.51v0.28
			l-1.1,1.39C65.17,128.93,65.49,129.04,65.7,129.24z"/>
	</g>
	<g id="XMLID_1031_">
		<rect x="7.93" y="119.46" style="fill:#E8927C;" width="0.7" height="6.5"/>
	</g>
	<g id="XMLID_1030_">
		<rect x="17.45" y="119.46" style="fill:#E8927C;" width="0.7" height="6.5"/>
	</g>
	<g id="XMLID_1029_">
		<rect x="27.84" y="119.46" style="fill:#E8927C;" width="0.7" height="10.68"/>
	</g>
	<g id="XMLID_1028_">
		<rect x="38.24" y="119.46" style="fill:#E8927C;" width="0.7" height="6.5"/>
	</g>
	<g id="XMLID_1027_">
		<rect x="47.24" y="119.46" style="fill:#E8927C;" width="0.7" height="10.68"/>
	</g>
	<g id="XMLID_1026_">
		<rect x="57.34" y="119.46" style="fill:#E8927C;" width="0.7" height="6.5"/>
	</g>
	<g id="XMLID_1025_">
		<rect x="66.98" y="119.46" style="fill:#E8927C;" width="0.7" height="10.68"/>
	</g>
	<g id="XMLID_1024_">
		<path style="fill:#020203;" d="M85.78,130.31H85v1.03h-0.4v-1.03h-2.2v-0.29l2.07-2.59h0.45l-2,2.52h1.69v-0.9H85v0.9h0.78V130.31
			z"/>
	</g>
	<g id="XMLID_1023_">
		<path style="fill:#020203;" d="M104.47,129.34c0.26,0.2,0.39,0.49,0.39,0.85c0,0.23-0.05,0.43-0.16,0.61
			c-0.11,0.18-0.26,0.32-0.48,0.42c-0.21,0.1-0.47,0.15-0.78,0.15c-0.28,0-0.54-0.05-0.79-0.14c-0.25-0.09-0.45-0.21-0.6-0.36
			l0.2-0.32c0.13,0.13,0.3,0.24,0.51,0.33c0.21,0.08,0.44,0.13,0.69,0.13c0.32,0,0.57-0.07,0.75-0.22c0.18-0.14,0.26-0.34,0.26-0.58
			c0-0.27-0.1-0.47-0.3-0.61c-0.2-0.14-0.53-0.21-1.01-0.21h-0.83l0.2-1.96h2.13v0.36h-1.78l-0.13,1.24h0.5
			C103.8,129.03,104.21,129.13,104.47,129.34z"/>
	</g>
	<g id="XMLID_1022_">
		<rect x="77.7" y="119.66" style="fill:#E8927C;" width="0.7" height="6.5"/>
	</g>
	<g id="XMLID_1021_">
		<rect x="86.7" y="119.66" style="fill:#E8927C;" width="0.7" height="10.68"/>
	</g>
	<g id="XMLID_1020_">
		<rect x="96.81" y="119.66" style="fill:#E8927C;" width="0.7" height="6.5"/>
	</g>
	<g id="XMLID_1019_">
		<rect x="106.45" y="119.66" style="fill:#E8927C;" width="0.7" height="10.68"/>
	</g>
	<g id="XMLID_1018_">
		<path style="fill:#020203;" d="M124.25,129.14c0.2,0.1,0.35,0.23,0.47,0.41c0.11,0.18,0.17,0.38,0.17,0.62
			c0,0.24-0.06,0.45-0.17,0.63c-0.11,0.18-0.27,0.32-0.48,0.42c-0.2,0.1-0.43,0.15-0.68,0.15c-0.52,0-0.91-0.17-1.19-0.51
			c-0.27-0.34-0.41-0.82-0.41-1.44c0-0.43,0.07-0.8,0.22-1.1c0.15-0.3,0.36-0.53,0.62-0.68c0.27-0.15,0.58-0.23,0.94-0.23
			c0.39,0,0.7,0.07,0.93,0.21l-0.16,0.32c-0.19-0.12-0.44-0.18-0.76-0.18c-0.43,0-0.77,0.14-1.01,0.41
			c-0.25,0.27-0.37,0.67-0.37,1.19c0,0.09,0.01,0.2,0.02,0.32c0.1-0.21,0.25-0.38,0.46-0.49c0.21-0.12,0.45-0.18,0.73-0.18
			C123.82,129,124.05,129.05,124.25,129.14z M124.22,130.8c0.18-0.15,0.26-0.36,0.26-0.62s-0.09-0.46-0.26-0.61
			c-0.18-0.15-0.42-0.23-0.72-0.23c-0.2,0-0.37,0.04-0.52,0.11c-0.15,0.07-0.27,0.18-0.35,0.31c-0.09,0.13-0.13,0.27-0.13,0.43
			c0,0.15,0.04,0.29,0.12,0.41c0.08,0.13,0.2,0.23,0.35,0.31c0.16,0.08,0.34,0.12,0.56,0.12
			C123.82,131.03,124.05,130.95,124.22,130.8z"/>
	</g>
	<g id="XMLID_1017_">
		<rect x="106.45" y="119.66" style="fill:#E8927C;" width="0.7" height="10.68"/>
	</g>
	<g id="XMLID_1016_">
		<rect x="116.55" y="119.66" style="fill:#E8927C;" width="0.7" height="6.5"/>
	</g>
	<g id="XMLID_1015_">
		<rect x="126.19" y="119.66" style="fill:#E8927C;" width="0.7" height="10.68"/>
	</g>
	<g id="XMLID_1014_">
		<rect x="135.83" y="119.66" style="fill:#E8927C;" width="0.7" height="6.5"/>
	</g>
</g>
</svg>
