<?xml version="1.0" encoding="utf-8"?>
<!-- Generator: Adobe Illustrator 25.0.0, SVG Export Plug-In . SVG Version: 6.00 Build 0)  -->
<svg version="1.1" id="Layer_1" xmlns="http://www.w3.org/2000/svg" xmlns:xlink="http://www.w3.org/1999/xlink" x="0px" y="0px"
	 width="141.61px" height="141.61px" viewBox="0 0 141.61 141.61" style="enable-background:new 0 0 141.61 141.61;"
	 xml:space="preserve">
<ellipse transform="matrix(0.357 -0.9341 0.9341 0.357 -22.3341 112.8623)" style="fill:none;stroke:#E8927C;stroke-width:2.3655;stroke-linecap:round;stroke-linejoin:round;stroke-miterlimit:10;" cx="70.81" cy="72.65" rx="46.7" ry="70.91"/>
<ellipse transform="matrix(0.357 -0.9341 0.9341 0.357 -22.3341 112.8623)" style="fill:none;stroke:#E8927C;stroke-width:2.3655;stroke-linecap:round;stroke-linejoin:round;stroke-miterlimit:10;" cx="70.81" cy="72.65" rx="31.2" ry="63.74"/>
<line style="fill:none;stroke:#E8927C;stroke-width:2.3655;stroke-linecap:round;stroke-linejoin:round;stroke-miterlimit:10;" x1="25.51" y1="56.65" x2="116.93" y2="87.89"/>
<polyline style="fill:none;stroke:#E8927C;stroke-width:2.3655;stroke-linecap:round;stroke-linejoin:round;stroke-miterlimit:10;" points="
	111.42,75.77 117.46,88.07 105.3,94.03 "/>
<polyline style="fill:none;stroke:#E8927C;stroke-width:2.3655;stroke-linecap:round;stroke-linejoin:round;stroke-miterlimit:10;" points="
	37.82,50.61 25.51,56.65 31.48,68.8 "/>
<g id="XMLID_13_">
	<g id="XMLID_16_">
		<path style="fill:#E8927C;" d="M73.02,62.04l-1.41,4.12l-2.09-0.71l1.3-3.8c0.4-1.16,0.06-1.88-0.78-2.17
			c-0.94-0.32-1.8,0.06-2.24,1.34l-1.23,3.61l-2.09-0.71l1.3-3.8c0.4-1.16,0.09-1.87-0.78-2.17c-0.92-0.32-1.78,0.06-2.22,1.35
			l-1.23,3.61l-2.09-0.71l2.46-7.2l1.99,0.68l-0.28,0.83c0.75-0.43,1.66-0.48,2.58-0.16c1,0.34,1.73,1.02,1.97,1.99
			c0.83-0.54,1.91-0.66,3-0.29C72.88,58.44,73.77,59.85,73.02,62.04z"/>
	</g>
	<g id="XMLID_14_">
		<path style="fill:#E8927C;" d="M87.07,66.84l-1.41,4.12l-2.09-0.71l1.3-3.8c0.4-1.16,0.06-1.88-0.78-2.17
			c-0.94-0.32-1.8,0.06-2.24,1.34l-1.23,3.61l-2.09-0.71l1.3-3.8c0.4-1.16,0.09-1.87-0.79-2.17c-0.92-0.31-1.78,0.06-2.22,1.35
			l-1.23,3.61l-2.09-0.71l2.46-7.2l1.99,0.68l-0.28,0.83c0.75-0.43,1.66-0.48,2.58-0.16c1,0.34,1.73,1.02,1.97,1.99
			c0.83-0.54,1.91-0.66,3-0.29C86.92,63.23,87.82,64.64,87.07,66.84z"/>
	</g>
</g>
</svg>
