<?xml version="1.0" encoding="utf-8"?>
<!-- Generator: Adobe Illustrator 25.0.0, SVG Export Plug-In . SVG Version: 6.00 Build 0)  -->
<svg version="1.1" id="Layer_1" xmlns="http://www.w3.org/2000/svg" xmlns:xlink="http://www.w3.org/1999/xlink" x="0px" y="0px"
	 width="141.61px" height="141.61px" viewBox="0 0 141.61 141.61" style="enable-background:new 0 0 141.61 141.61;"
	 xml:space="preserve">
<g>
	<g>
		<path style="fill:#333333;" d="M71.14,139.88c-24.48,0-44.4-19.91-44.4-44.4c0-24.47,19.91-44.39,44.4-44.39
			c24.47,0,44.39,19.91,44.39,44.39C115.53,119.97,95.62,139.88,71.14,139.88z M71.14,53.06c-23.4,0-42.43,19.03-42.43,42.42
			c0,23.4,19.03,42.43,42.43,42.43c23.39,0,42.42-19.03,42.42-42.43C113.56,72.09,94.53,53.06,71.14,53.06z"/>
	</g>
	<g>
		<path style="fill:#333333;" d="M71.17,53.55c-0.22,0-0.45-0.08-0.62-0.22L42.84,30.56c-0.24-0.19-0.37-0.48-0.36-0.78
			c0.01-0.3,0.15-0.58,0.39-0.76l12.08-9.05c0.17-0.13,0.38-0.2,0.59-0.2h32c0.22,0,0.43,0.07,0.6,0.21l11.26,8.72
			c0.24,0.18,0.38,0.46,0.38,0.76c0.01,0.29-0.12,0.58-0.35,0.77L71.8,53.32C71.62,53.47,71.39,53.55,71.17,53.55z M45.06,29.83
			l26.11,21.45L97.24,29.5l-10.03-7.77H55.88L45.06,29.83z"/>
	</g>
	<g>
		<path style="fill:#333333;" d="M43.47,30.78c-0.54,0-0.98-0.44-0.98-0.98c0-0.55,0.44-0.99,0.98-0.99l55.34-0.32
			c0.01,0,0.01,0,0.01,0c0.54,0,0.98,0.44,0.98,0.98c0,0.55-0.44,0.99-0.98,0.99L43.47,30.78C43.47,30.78,43.47,30.78,43.47,30.78z"
			/>
	</g>
</g>
<g>
	<path style="fill:#333333;" d="M35.59,18.92c-0.25,0-0.51-0.09-0.7-0.28l-6.67-6.67c-0.38-0.38-0.38-1.02,0-1.4l6.67-6.67
		c0.38-0.38,1.02-0.38,1.4,0l6.67,6.67c0.38,0.38,0.38,1.02,0,1.4l-6.67,6.67C36.1,18.83,35.84,18.92,35.59,18.92z M30.31,11.27
		l5.28,5.28l5.28-5.28l-5.28-5.28L30.31,11.27z"/>
</g>
<g>
	<path style="fill:#333333;" d="M114.54,51.82c-0.25,0-0.5-0.09-0.69-0.28l-5.34-5.33c-0.18-0.18-0.29-0.44-0.29-0.7
		s0.1-0.51,0.28-0.7l5.34-5.34c0.38-0.38,1.02-0.38,1.4,0l5.34,5.34c0.18,0.19,0.28,0.44,0.28,0.7s-0.11,0.52-0.29,0.7l-5.34,5.33
		C115.04,51.73,114.8,51.82,114.54,51.82z M110.6,45.51l3.95,3.94l3.95-3.94l-3.95-3.95L110.6,45.51z"/>
</g>
</svg>
