<?xml version="1.0" encoding="utf-8"?>
<!-- Generator: Adobe Illustrator 25.0.0, SVG Export Plug-In . SVG Version: 6.00 Build 0)  -->
<svg version="1.1" id="Layer_1" xmlns="http://www.w3.org/2000/svg" xmlns:xlink="http://www.w3.org/1999/xlink" x="0px" y="0px"
	 width="141.61px" height="141.61px" viewBox="0 0 141.61 141.61" style="enable-background:new 0 0 141.61 141.61;"
	 xml:space="preserve">
<g>
	<path style="fill:#333333;" d="M69.07,138.95c-32.29,0-58.56-26.27-58.56-58.56s26.27-58.56,58.56-58.56
		c6.41,0,12.88,1.12,19.21,3.34c0.25,0.09,0.44,0.3,0.49,0.56c0.05,0.26-0.04,0.52-0.24,0.7c-4.18,3.67-8.57,6.23-12.6,7.42
		C86.1,36.8,97.45,48.16,100.4,58.34c1.63-5.46,5.77-11.59,11.45-16.68c0.14-0.13,0.35-0.2,0.53-0.19c0.2,0.01,0.38,0.1,0.52,0.25
		c9.5,10.75,14.73,24.48,14.73,38.68C127.63,112.68,101.36,138.95,69.07,138.95z M69.07,23.31C37.6,23.31,12,48.92,12,80.39
		s25.6,57.08,57.07,57.08c31.47,0,57.08-25.6,57.08-57.08c0-13.58-4.91-26.73-13.86-37.12c-6.8,6.29-11.16,14.01-11.16,19.83
		c0,0.41-0.33,0.74-0.74,0.74s-0.74-0.33-0.74-0.74c0-11.72-16.78-28.51-28.51-28.51c-0.41,0-0.74-0.33-0.74-0.74
		s0.33-0.74,0.74-0.74c4.5,0,10.06-2.52,15.42-6.95C80.77,24.27,74.9,23.31,69.07,23.31z"/>
</g>
<g>
	<path style="fill:#333333;" d="M100.38,64.01c-0.51,0-0.91-0.41-0.91-0.91c0-11.84-16.95-28.79-28.79-28.79
		c-0.51,0-0.91-0.41-0.91-0.91s0.41-0.91,0.91-0.91c11.84,0,28.79-16.95,28.79-28.79c0-0.51,0.41-0.91,0.91-0.91
		c0.51,0,0.91,0.41,0.91,0.91c0,11.84,16.96,28.79,28.8,28.79c0.51,0,0.91,0.41,0.91,0.91s-0.41,0.91-0.91,0.91
		c-11.84,0-28.8,16.95-28.8,28.79C101.3,63.6,100.89,64.01,100.38,64.01z M76.09,33.39c10.07,3.19,21.1,14.22,24.29,24.29
		c3.19-10.07,14.23-21.1,24.3-24.29c-10.07-3.19-21.1-14.22-24.3-24.29C97.19,19.17,86.16,30.2,76.09,33.39z"/>
</g>
<g>
	<path style="fill:#333333;" d="M69.07,121.42c-22.63,0-41.03-18.4-41.03-41.03s18.4-41.03,41.03-41.03
		c9.75,0,19.22,3.54,26.69,9.97c1.73,2.44,3.63,5.64,4.64,9.06c0.16-0.55,0.35-1.12,0.57-1.7c0.1-0.26,0.33-0.44,0.6-0.48
		c0.27-0.06,0.54,0.08,0.7,0.3c5.12,7.1,7.83,15.35,7.83,23.87C110.1,103.01,91.69,121.42,69.07,121.42z M69.07,40.84
		c-21.81,0-39.54,17.74-39.54,39.54s17.74,39.54,39.54,39.54s39.54-17.74,39.54-39.54c0-7.73-2.32-15.24-6.72-21.81
		c-0.51,1.65-0.77,3.16-0.77,4.52c0,0.41-0.33,0.74-0.74,0.74s-0.74-0.33-0.74-0.74c0-3.68-1.77-8.22-4.98-12.78
		C87.59,44.26,78.45,40.84,69.07,40.84z"/>
</g>
</svg>
