<?xml version="1.0" encoding="utf-8"?>
<!-- Generator: Adobe Illustrator 25.0.0, SVG Export Plug-In . SVG Version: 6.00 Build 0)  -->
<svg version="1.1" id="Layer_1" xmlns="http://www.w3.org/2000/svg" xmlns:xlink="http://www.w3.org/1999/xlink" x="0px" y="0px"
	 width="141.61px" height="141.61px" viewBox="0 0 141.61 141.61" style="enable-background:new 0 0 141.61 141.61;"
	 xml:space="preserve">
<g>
	<path style="fill:#333333;" d="M52.73,138.95c-0.04,0-0.08,0-0.12-0.01c-36.1-5.15-46.85-37.1-46.96-37.42
		c-0.08-0.27-0.03-0.56,0.15-0.78c0.19-0.21,0.47-0.34,0.75-0.29c10.49,1.3,18.57-1.43,23.48-3.98c3.54-1.83,6.9-4.64,10.56-8.85
		c6.89-7.92,14.25-12.1,21.87-12.43c0.32-0.01,0.65-0.02,0.97-0.02c9.46,0,15.74,5.96,16.01,6.22c5.39,6.58,7.39,13.62,6.01,20.98
		c-3.78,20.13-31.16,35.82-32.32,36.47C53.01,138.91,52.87,138.95,52.73,138.95z M7.7,102.24c2.35,5.82,14.04,30.47,44.86,35.01
		c2.75-1.62,27.81-16.79,31.27-35.2c1.28-6.86-0.6-13.43-5.6-19.54l0,0c-0.01,0-6.49-6.1-15.72-5.66
		c-7.14,0.32-14.1,4.31-20.66,11.86c-3.81,4.37-7.32,7.3-11.05,9.24C25.88,100.48,17.96,103.18,7.7,102.24z"/>
</g>
<g>
	<path style="fill:#333333;" d="M76.01,80.67c-0.18,0-0.35-0.05-0.5-0.17c-0.37-0.28-0.44-0.8-0.16-1.16l57.71-76.28
		c0.27-0.36,0.8-0.44,1.16-0.16c0.37,0.28,0.44,0.8,0.16,1.16L76.67,80.34C76.51,80.55,76.26,80.67,76.01,80.67z"/>
</g>
<g>
	<path style="fill:#333333;" d="M77.98,117.2c-0.16,0-0.3-0.04-0.45-0.13l-39.4-24.96c-0.38-0.25-0.5-0.76-0.25-1.14
		c0.25-0.4,0.75-0.51,1.15-0.26l39.4,24.96c0.38,0.25,0.5,0.76,0.25,1.14C78.52,117.07,78.25,117.2,77.98,117.2z"/>
</g>
</svg>
