<?xml version="1.0" encoding="utf-8"?>
<!-- Generator: Adobe Illustrator 25.0.0, SVG Export Plug-In . SVG Version: 6.00 Build 0)  -->
<svg version="1.1" id="Layer_1" xmlns="http://www.w3.org/2000/svg" xmlns:xlink="http://www.w3.org/1999/xlink" x="0px" y="0px"
	 width="141.61px" height="141.61px" viewBox="0 0 141.61 141.61" style="enable-background:new 0 0 141.61 141.61;"
	 xml:space="preserve">
<g>
	<path style="fill:#333333;" d="M102.84,136.51H38.77c-0.31,0-0.59-0.18-0.71-0.47c-0.19-0.43-18.75-43.43-7.27-71.91
		c3.89-9.65,10.78-16.64,20.5-20.79V24.52c0-0.43,0.35-0.78,0.78-0.78h8.29V6.39c0-0.43,0.35-0.78,0.78-0.78h19.34
		c0.43,0,0.78,0.35,0.78,0.78v17.35h8.28c0.43,0,0.78,0.35,0.78,0.78v18.82c9.72,4.15,16.62,11.14,20.5,20.79
		c11.48,28.48-7.08,71.48-7.27,71.91C103.43,136.33,103.15,136.51,102.84,136.51z M39.29,134.95h63.03
		c1.97-4.73,17.65-43.95,7.06-70.23c-3.79-9.4-10.57-16.17-20.14-20.13c-0.29-0.12-0.48-0.4-0.48-0.72V25.3h-8.28
		c-0.43,0-0.78-0.35-0.78-0.78V7.17H61.92v17.35c0,0.43-0.35,0.78-0.78,0.78h-8.29v18.56c0,0.32-0.19,0.6-0.48,0.72
		c-9.57,3.96-16.35,10.73-20.13,20.13C21.64,91,37.32,130.22,39.29,134.95z"/>
</g>
<g>
	<path style="fill:#333333;" d="M80.48,25.3H61.14c-0.43,0-0.78-0.35-0.78-0.78s0.35-0.78,0.78-0.78h19.34
		c0.43,0,0.78,0.35,0.78,0.78S80.91,25.3,80.48,25.3z"/>
</g>
<g>
	<path style="fill:#333333;" d="M89.54,44.64H52.07c-0.43,0-0.78-0.35-0.78-0.78s0.35-0.78,0.78-0.78h37.47
		c0.43,0,0.78,0.35,0.78,0.78S89.97,44.64,89.54,44.64z"/>
</g>
<g>
	<path style="fill:#333333;" d="M112.89,79.31H28.72c-0.43,0-0.78-0.35-0.78-0.78c0-0.43,0.35-0.78,0.78-0.78h84.17
		c0.43,0,0.78,0.35,0.78,0.78C113.67,78.96,113.33,79.31,112.89,79.31z"/>
</g>
</svg>
