<?xml version="1.0" encoding="utf-8"?>
<!-- Generator: Adobe Illustrator 25.0.0, SVG Export Plug-In . SVG Version: 6.00 Build 0)  -->
<svg version="1.1" id="Layer_1" xmlns="http://www.w3.org/2000/svg" xmlns:xlink="http://www.w3.org/1999/xlink" x="0px" y="0px"
	 width="141.61px" height="141.61px" viewBox="0 0 141.61 141.61" style="enable-background:new 0 0 141.61 141.61;"
	 xml:space="preserve">
<path style="fill:none;stroke:#E8927C;stroke-width:5;stroke-linecap:round;stroke-linejoin:round;stroke-miterlimit:10;" d="
	M107.34,101.18h24.85c2.99,0,5.42-2.43,5.42-5.43V54.8c0-3-2.43-5.43-5.42-5.43h-24.7H36.98H9.49c-3,0-5.43,2.43-5.43,5.43v40.96
	c0,3,2.43,5.43,5.43,5.43h27.33"/>
<path style="fill:none;stroke:#E8927C;stroke-width:5;stroke-linecap:round;stroke-linejoin:round;stroke-miterlimit:10;" d="
	M101.78,126.29H42.39c-3.07,0-5.56-2.49-5.56-5.56V90.51c0-3.07,2.49-5.56,5.56-5.56h59.39c3.07,0,5.56,2.49,5.56,5.56v30.22
	C107.34,123.8,104.85,126.29,101.78,126.29z"/>
<path style="fill:none;stroke:#E8927C;stroke-width:5;stroke-linecap:round;stroke-linejoin:round;stroke-miterlimit:10;" d="
	M107.49,49.37H36.98V28.4c0-3.17,2.57-5.75,5.75-5.75h59.02c3.17,0,5.75,2.57,5.75,5.75V49.37z"/>
<circle style="fill:none;stroke:#E8927C;stroke-width:5;stroke-linecap:round;stroke-linejoin:round;stroke-miterlimit:10;" cx="111.35" cy="67.62" r="6.86"/>
</svg>
