<svg id="Camada_1" data-name="Camada 1" xmlns="http://www.w3.org/2000/svg" viewBox="0 0 30 30"><defs><style>.cls-1{fill:#e8917c;}</style></defs><title>iconssvg</title><path class="cls-1" d="M25.41,26.44H5.28A5,5,0,0,1,.62,21.62V10.86A4.46,4.46,0,0,1,5.06,6.42a0.65,0.65,0,0,1,.64.69c0,0.38,0,.69-0.42.69a2.92,2.92,0,0,0-2.9,3.05V21.62a3,3,0,0,0,2.9,3.06H25.41a3.27,3.27,0,0,0,3.31-3.06V10.86A3.18,3.18,0,0,0,25.54,7.8a0.86,0.86,0,0,1-.86-0.69,0.7,0.7,0,0,1,.7-0.69,4.24,4.24,0,0,1,4.23,4.43V21.62C29.6,24.18,27.8,26.44,25.41,26.44Z"/><path class="cls-1" d="M15.33,17.63a4.41,4.41,0,0,1-2.15-.55L1.88,10a0.69,0.69,0,1,1,.73-1.17l11.28,7a3.06,3.06,0,0,0,3,0l11-7A0.69,0.69,0,1,1,28.59,10l-11,7A4.51,4.51,0,0,1,15.33,17.63Z"/><path class="cls-1" d="M16.29,6.63l0.12-.55h1.31L17,9.62a2.76,2.76,0,0,0-.07.44,0.26,0.26,0,0,0,.06.18,0.18,0.18,0,0,0,.14.06A1.23,1.23,0,0,0,17.78,10,3,3,0,0,0,18.52,9a2.9,2.9,0,0,0,.09-2.43A2.61,2.61,0,0,0,18,5.67a3,3,0,0,0-1.05-.6,4.3,4.3,0,0,0-1.42-.22A4.94,4.94,0,0,0,14,5.06a3.74,3.74,0,0,0-1.18.6,3.39,3.39,0,0,0-.85,1,4.23,4.23,0,0,0-.46,1.12A5,5,0,0,0,11.36,9a3.53,3.53,0,0,0,.34,1.55,3.15,3.15,0,0,0,1,1.18,4,4,0,0,0,1.56.68,6.54,6.54,0,0,0,2.07.08,4.91,4.91,0,0,0,1.55-.42,3.06,3.06,0,0,0,1.08-.86H20a3.49,3.49,0,0,1-.67.94,3.8,3.8,0,0,1-1,.7,5,5,0,0,1-1.24.43,7.1,7.1,0,0,1-1.5.15,7,7,0,0,1-2.19-.32,4.49,4.49,0,0,1-1.64-.92,3.9,3.9,0,0,1-1-1.43,4.82,4.82,0,0,1-.34-1.84,5.43,5.43,0,0,1,.35-2,4.52,4.52,0,0,1,2.62-2.64,5.6,5.6,0,0,1,2.1-.38,5.18,5.18,0,0,1,1.72.27A3.82,3.82,0,0,1,18.57,5a3.43,3.43,0,0,1,.85,1.22,4,4,0,0,1,.29,1.55,3.74,3.74,0,0,1-.92,2.44,3.3,3.3,0,0,1-1,.8,2.88,2.88,0,0,1-1.29.29,1.2,1.2,0,0,1-.62-0.14,0.67,0.67,0,0,1-.3-0.43,1.92,1.92,0,0,1-1,.54,1.85,1.85,0,0,1-1.08-.1,1.8,1.8,0,0,1-.85-0.72,2.3,2.3,0,0,1-.32-1.26,3.74,3.74,0,0,1,.33-1.53,3.16,3.16,0,0,1,.95-1.23A2.21,2.21,0,0,1,15,6,1.43,1.43,0,0,1,16.29,6.63Zm-2.7,2.56a1.45,1.45,0,0,0,.25.91,0.78,0.78,0,0,0,.65.32A1.1,1.1,0,0,0,15.3,10a2.4,2.4,0,0,0,.54-0.94A3.55,3.55,0,0,0,16,8,1.67,1.67,0,0,0,16,7.54a1.14,1.14,0,0,0-.18-0.37,0.8,0.8,0,0,0-.29-0.24,0.89,0.89,0,0,0-.39-0.08,1.1,1.1,0,0,0-.78.34,2.21,2.21,0,0,0-.54.88A3.38,3.38,0,0,0,13.58,9.19Z"/></svg>