<?xml version="1.0" encoding="utf-8"?>
<!-- Generator: Adobe Illustrator 25.0.0, SVG Export Plug-In . SVG Version: 6.00 Build 0)  -->
<svg version="1.1" id="Camada_1" xmlns="http://www.w3.org/2000/svg" xmlns:xlink="http://www.w3.org/1999/xlink" x="0px" y="0px"
	 width="379.61px" height="65.52px" viewBox="0 0 379.61 65.52" style="enable-background:new 0 0 379.61 65.52;"
	 xml:space="preserve">
<g>
	<defs>
		<path id="SVGID_3_" d="M379.61,32.76c0-10.66-6.77-19.32-15.19-19.54V13.2L31.79,0H20.18C9.03,0,0,9.03,0,20.18v25.16
			c0,11.14,9.03,20.18,20.18,20.18h11.61l332.62-13.2V52.3C372.83,52.07,379.61,43.42,379.61,32.76z"/>
	</defs>
	<clipPath id="SVGID_2_">
		<use xlink:href="#SVGID_3_"  style="overflow:visible;"/>
	</clipPath>
	<g style="clip-path:url(#SVGID_2_);">
		<rect x="-13.02" y="-14.49" style="fill-rule:evenodd;clip-rule:evenodd;fill:#E8917B;" width="407.95" height="94.11"/>
		<g>
			<defs>
				<rect id="SVGID_5_" x="-10.48" y="-14.41" width="407.95" height="94.11"/>
			</defs>
			<clipPath id="SVGID_4_">
				<use xlink:href="#SVGID_5_"  style="overflow:visible;"/>
			</clipPath>
			<g style="clip-path:url(#SVGID_4_);">
				<rect x="316.7" y="-20.31" style="fill:#FFFFFF;" width="1" height="104.75"/>
				<rect x="328.54" y="-19.75" style="fill:#FFFFFF;" width="1" height="103.62"/>
				<rect x="340.38" y="-19.32" style="fill:#FFFFFF;" width="1" height="102.77"/>
				<rect x="352.23" y="-18.9" style="fill:#FFFFFF;" width="1" height="101.92"/>
				<rect x="364.74" y="-18.33" style="fill:#FFFFFF;" width="1" height="100.79"/>
				<rect x="304.85" y="-20.74" style="fill:#FFFFFF;" width="1" height="105.6"/>
				<rect x="293.01" y="-21.17" style="fill:#FFFFFF;" width="1" height="106.46"/>
				<rect x="281.16" y="-21.73" style="fill:#FFFFFF;" width="1" height="107.59"/>
				<rect x="269.32" y="-22.16" style="fill:#FFFFFF;" width="1" height="108.44"/>
				<rect x="257.48" y="-22.58" style="fill:#FFFFFF;" width="1" height="109.29"/>
				<rect x="245.63" y="-23.15" style="fill:#FFFFFF;" width="1" height="110.42"/>
				<rect x="233.79" y="-23.57" style="fill:#FFFFFF;" width="1" height="111.27"/>
				<rect x="221.95" y="-24" style="fill:#FFFFFF;" width="1" height="112.12"/>
				<rect x="210.1" y="-24.57" style="fill:#FFFFFF;" width="1" height="113.26"/>
				<rect x="198.26" y="-24.99" style="fill:#FFFFFF;" width="1" height="114.11"/>
				<rect x="186.42" y="-25.42" style="fill:#FFFFFF;" width="1" height="114.96"/>
				<rect x="174.57" y="-25.98" style="fill:#FFFFFF;" width="1" height="116.09"/>
				<rect x="162.73" y="-26.41" style="fill:#FFFFFF;" width="1" height="116.94"/>
				<rect x="150.88" y="-26.83" style="fill:#FFFFFF;" width="1" height="117.79"/>
				<rect x="139.04" y="-27.4" style="fill:#FFFFFF;" width="1" height="118.93"/>
				<rect x="127.2" y="-27.83" style="fill:#FFFFFF;" width="1" height="119.78"/>
				<rect x="115.35" y="-28.25" style="fill:#FFFFFF;" width="1" height="120.63"/>
				<rect x="103.51" y="-28.82" style="fill:#FFFFFF;" width="1" height="121.76"/>
				<rect x="91.67" y="-29.24" style="fill:#FFFFFF;" width="1" height="122.61"/>
				<rect x="79.82" y="-29.67" style="fill:#FFFFFF;" width="1" height="123.46"/>
				<rect x="67.98" y="-30.24" style="fill:#FFFFFF;" width="1" height="124.6"/>
				<rect x="56.14" y="-30.66" style="fill:#FFFFFF;" width="1" height="125.45"/>
				<rect x="44.29" y="-31.09" style="fill:#FFFFFF;" width="1" height="126.3"/>
				<rect x="32.45" y="-31.65" style="fill:#FFFFFF;" width="1" height="127.43"/>
			</g>
		</g>
		<g>
			<path style="fill:#FFFFFF;" d="M337.42,30.48h-5.6v-0.79h4.9v-1.26h0.7V30.48z"/>
			<path style="fill:#FFFFFF;" d="M334.62,31.71c1.82,0,2.86,0.98,2.86,2.29c0,1.3-1.04,2.28-2.86,2.28c-1.82,0-2.86-0.98-2.86-2.28
				C331.76,32.68,332.8,31.71,334.62,31.71z M334.62,35.47c1.43,0,2.15-0.61,2.15-1.48c0-0.88-0.72-1.49-2.15-1.49
				c-1.43,0-2.15,0.61-2.15,1.49C332.47,34.87,333.19,35.47,334.62,35.47z"/>
		</g>
		<g>
			<path style="fill:#FFFFFF;" d="M346.53,34.59c-1.91,0-2.94-1.08-2.94-2.65c0-0.53,0.1-1.03,0.33-1.39l0.62,0.3
				c-0.19,0.3-0.26,0.67-0.26,1.08c0,1.14,0.71,1.86,2.11,1.86h0.2c-0.49-0.33-0.74-0.92-0.74-1.62c0-1.11,0.66-1.91,1.7-1.91
				c1.08,0,1.77,0.86,1.77,1.98C349.32,33.75,348.31,34.59,346.53,34.59z M347.59,33.61c0.58,0,1.08-0.46,1.08-1.34
				c0-0.73-0.42-1.23-1.09-1.23c-0.66,0-1.08,0.49-1.08,1.27C346.5,33.08,346.97,33.61,347.59,33.61z"/>
		</g>
		<g>
			<path style="fill:#FFFFFF;" d="M357.07,34.73c-1.01,0-1.65-0.86-1.65-2.23c0-1.36,0.63-2.21,1.65-2.21
				c0.64,0,1.11,0.35,1.35,0.98c0.24-0.51,0.66-0.78,1.21-0.78c0.94,0,1.52,0.81,1.52,2.01c0,1.22-0.58,2.03-1.52,2.03
				c-0.55,0-0.97-0.28-1.21-0.79C358.18,34.38,357.71,34.73,357.07,34.73z M357.1,33.93c0.62,0,1-0.54,1-1.43s-0.38-1.42-1-1.42
				c-0.63,0-1.02,0.53-1.02,1.42S356.46,33.93,357.1,33.93z M359.6,31.28c-0.55,0-0.89,0.46-0.89,1.22c0,0.78,0.34,1.25,0.89,1.25
				c0.56,0,0.9-0.5,0.9-1.25C360.5,31.75,360.16,31.28,359.6,31.28z"/>
		</g>
		<g>
			<path style="fill:#FFFFFF;" d="M372.92,34.58h-0.54l-5.05-2.26v-0.85l4.9,2.21v-2.56h-1v-0.77h1.69V34.58z"/>
		</g>
		<g>
			<path style="fill:#FFFFFF;" d="M325.58,31.67h-5.6v-0.79h4.9v-1.26h0.7V31.67z"/>
			<path style="fill:#FFFFFF;" d="M325.58,34.63h-5.6v-0.79h4.9v-1.26h0.7V34.63z"/>
		</g>
		<g>
			<path style="fill:#FFFFFF;" d="M313.75,30.86h-5.6v-0.79h4.9V28.8h0.7V30.86z"/>
			<path style="fill:#FFFFFF;" d="M308.85,36.01h-0.7v-4.02h0.54l2.2,2.28c0.58,0.59,0.93,0.7,1.28,0.7c0.58,0,0.93-0.41,0.93-1.19
				c0-0.6-0.19-1.09-0.61-1.43l0.47-0.54c0.54,0.43,0.85,1.17,0.85,2.05c0,1.17-0.6,1.92-1.56,1.92c-0.54,0-1.03-0.16-1.76-0.92
				l-1.65-1.71V36.01z"/>
		</g>
		<g>
			<path style="fill:#FFFFFF;" d="M301.91,30.86h-5.6v-0.79h4.9v-1.26h0.7V30.86z"/>
			<path style="fill:#FFFFFF;" d="M297.96,35.92c-0.94,0-1.71-0.7-1.71-2.12c0-0.8,0.26-1.58,0.68-2.05l0.63,0.37
				c-0.35,0.38-0.6,1-0.6,1.69c0,0.84,0.38,1.32,0.99,1.32c0.59,0,0.98-0.42,0.98-1.38v-0.45h0.56l1.73,1.41V32h0.7v3.69h-0.54
				l-1.81-1.46C299.46,35.35,298.83,35.92,297.96,35.92z"/>
		</g>
		<g>
			<path style="fill:#FFFFFF;" d="M290.08,30.48h-5.6v-0.79h4.9v-1.26h0.7V30.48z"/>
			<path style="fill:#FFFFFF;" d="M285.86,36.57v-1.06h-1.38v-0.78h1.38v-3.11h0.56l3.66,2.86v0.86l-3.53-2.74v2.15h1.22v0.75h-1.22
				v1.06H285.86z"/>
		</g>
		<g>
			<path style="fill:#FFFFFF;" d="M278.24,30.86h-5.6v-0.79h4.9V28.8h0.7V30.86z"/>
			<path style="fill:#FFFFFF;" d="M274.32,36.01c-0.97,0-1.74-0.69-1.74-2.12c0-0.79,0.26-1.58,0.68-2.05l0.63,0.37
				c-0.35,0.38-0.6,1-0.6,1.68c0,0.85,0.39,1.33,1,1.33c0.63,0,1.02-0.4,1.02-1.69v-1.27l2.93,0.3v3.16h-0.7v-2.49l-1.54-0.15v0.62
				C276.01,35.35,275.31,36.01,274.32,36.01z"/>
		</g>
		<g>
			<path style="fill:#FFFFFF;" d="M266.41,30.68h-5.6v-0.79h4.9v-1.26h0.7V30.68z"/>
			<path style="fill:#FFFFFF;" d="M262.52,36.24c-1.08,0-1.77-0.87-1.77-1.98c0-1.5,1.01-2.35,2.79-2.35c1.91,0,2.93,1.08,2.93,2.65
				c0,0.53-0.1,1.03-0.33,1.39l-0.62-0.3c0.19-0.29,0.26-0.67,0.26-1.07c0-1.13-0.71-1.86-2.11-1.86c-0.06,0-0.13,0-0.2,0.01
				c0.48,0.32,0.74,0.91,0.74,1.61C264.21,35.43,263.55,36.24,262.52,36.24z M262.48,35.47c0.66,0,1.08-0.5,1.08-1.28
				c0-0.76-0.47-1.29-1.09-1.29c-0.58,0-1.08,0.46-1.08,1.33C261.4,34.95,261.82,35.47,262.48,35.47z"/>
		</g>
		<g>
			<path style="fill:#FFFFFF;" d="M254.58,30.76h-5.6v-0.79h4.9v-1.26h0.7V30.76z"/>
			<path style="fill:#FFFFFF;" d="M254.58,36.06h-0.54l-5.05-2.26v-0.85l4.9,2.21v-2.56h-1v-0.77h1.69V36.06z"/>
		</g>
		<g>
			<path style="fill:#FFFFFF;" d="M242.74,30.58h-5.6v-0.79h4.9v-1.26h0.7V30.58z"/>
			<path style="fill:#FFFFFF;" d="M238.73,36.21c-1.01,0-1.65-0.86-1.65-2.23c0-1.36,0.63-2.21,1.65-2.21
				c0.64,0,1.11,0.35,1.35,0.98c0.24-0.51,0.66-0.78,1.21-0.78c0.94,0,1.52,0.81,1.52,2.01c0,1.22-0.58,2.03-1.52,2.03
				c-0.55,0-0.97-0.28-1.21-0.79C239.83,35.86,239.37,36.21,238.73,36.21z M238.75,35.41c0.62,0,1-0.54,1-1.43s-0.38-1.42-1-1.42
				c-0.63,0-1.02,0.53-1.02,1.42S238.12,35.41,238.75,35.41z M241.25,32.76c-0.55,0-0.89,0.46-0.89,1.22c0,0.78,0.34,1.25,0.89,1.25
				c0.56,0,0.9-0.5,0.9-1.25C242.16,33.23,241.81,32.76,241.25,32.76z"/>
		</g>
		<g>
			<path style="fill:#FFFFFF;" d="M230.91,30.68h-5.6v-0.79h4.9v-1.26h0.7V30.68z"/>
			<path style="fill:#FFFFFF;" d="M228.18,36.07c-1.91,0-2.94-1.08-2.94-2.65c0-0.53,0.1-1.03,0.33-1.39l0.62,0.3
				c-0.19,0.3-0.26,0.67-0.26,1.08c0,1.14,0.71,1.86,2.11,1.86h0.2c-0.49-0.33-0.74-0.92-0.74-1.62c0-1.11,0.66-1.91,1.7-1.91
				c1.08,0,1.77,0.86,1.77,1.98C230.97,35.23,229.96,36.07,228.18,36.07z M229.24,35.09c0.58,0,1.08-0.46,1.08-1.34
				c0-0.73-0.42-1.23-1.09-1.23c-0.66,0-1.08,0.49-1.08,1.27C228.16,34.56,228.63,35.09,229.24,35.09z"/>
		</g>
		<g>
			<path style="fill:#FFFFFF;" d="M214.17,31.88h-0.7v-4.02h0.54l2.2,2.28c0.58,0.59,0.93,0.7,1.28,0.7c0.58,0,0.93-0.41,0.93-1.19
				c0-0.6-0.19-1.09-0.61-1.43l0.47-0.54c0.54,0.43,0.85,1.17,0.85,2.05c0,1.17-0.6,1.92-1.56,1.92c-0.54,0-1.03-0.16-1.76-0.92
				l-1.65-1.71V31.88z"/>
			<path style="fill:#FFFFFF;" d="M216.27,32.51c1.82,0,2.86,0.98,2.86,2.29c0,1.3-1.04,2.28-2.86,2.28c-1.82,0-2.86-0.98-2.86-2.28
				C213.41,33.49,214.45,32.51,216.27,32.51z M216.27,36.28c1.43,0,2.15-0.61,2.15-1.48c0-0.88-0.72-1.49-2.15-1.49
				c-1.43,0-2.15,0.61-2.15,1.49C214.12,35.67,214.84,36.28,216.27,36.28z"/>
		</g>
		<g>
			<path style="fill:#FFFFFF;" d="M202.33,33.05h-0.7v-4.02h0.54l2.2,2.28c0.58,0.59,0.93,0.7,1.28,0.7c0.58,0,0.93-0.41,0.93-1.19
				c0-0.6-0.19-1.09-0.61-1.43l0.47-0.54c0.54,0.43,0.85,1.17,0.85,2.05c0,1.17-0.6,1.92-1.56,1.92c-0.54,0-1.03-0.16-1.76-0.92
				l-1.65-1.71V33.05z"/>
			<path style="fill:#FFFFFF;" d="M207.24,35.45h-5.6v-0.79h4.9v-1.26h0.7V35.45z"/>
		</g>
		<g>
			<path style="fill:#FFFFFF;" d="M190.5,32.24h-0.7v-4.02h0.54l2.2,2.28c0.58,0.59,0.93,0.7,1.28,0.7c0.58,0,0.93-0.41,0.93-1.19
				c0-0.6-0.19-1.09-0.61-1.43l0.47-0.54c0.54,0.43,0.85,1.17,0.85,2.05c0,1.17-0.6,1.92-1.56,1.92c-0.54,0-1.03-0.16-1.76-0.92
				l-1.65-1.71V32.24z"/>
			<path style="fill:#FFFFFF;" d="M190.5,36.83h-0.7v-4.02h0.54l2.2,2.28c0.58,0.59,0.93,0.7,1.28,0.7c0.58,0,0.93-0.41,0.93-1.19
				c0-0.6-0.19-1.09-0.61-1.43l0.47-0.54c0.54,0.43,0.85,1.17,0.85,2.05c0,1.17-0.6,1.92-1.56,1.92c-0.54,0-1.03-0.16-1.76-0.92
				l-1.65-1.71V36.83z"/>
		</g>
		<g>
			<path style="fill:#FFFFFF;" d="M178.66,32.25h-0.7v-4.02h0.54l2.2,2.28c0.58,0.59,0.93,0.7,1.28,0.7c0.58,0,0.93-0.41,0.93-1.19
				c0-0.6-0.19-1.09-0.61-1.43l0.47-0.54c0.54,0.43,0.85,1.17,0.85,2.05c0,1.17-0.6,1.92-1.56,1.92c-0.54,0-1.03-0.16-1.76-0.92
				l-1.65-1.71V32.25z"/>
			<path style="fill:#FFFFFF;" d="M179.62,36.73c-0.94,0-1.71-0.7-1.71-2.12c0-0.8,0.26-1.58,0.68-2.05l0.63,0.37
				c-0.35,0.38-0.6,1-0.6,1.69c0,0.84,0.38,1.32,0.99,1.32c0.59,0,0.98-0.42,0.98-1.38V34.1h0.56l1.73,1.41v-2.69h0.7v3.69h-0.54
				l-1.81-1.46C181.11,36.17,180.48,36.73,179.62,36.73z"/>
		</g>
		<g>
			<path style="fill:#FFFFFF;" d="M166.83,31.93h-0.7v-4.02h0.54l2.2,2.28c0.58,0.59,0.93,0.7,1.28,0.7c0.58,0,0.93-0.41,0.93-1.19
				c0-0.6-0.19-1.09-0.61-1.43l0.47-0.54c0.54,0.43,0.85,1.17,0.85,2.05c0,1.17-0.6,1.92-1.56,1.92c-0.54,0-1.03-0.16-1.76-0.92
				l-1.65-1.71V31.93z"/>
			<path style="fill:#FFFFFF;" d="M167.51,37.31v-1.06h-1.38v-0.78h1.38v-3.11h0.56l3.66,2.86v0.86l-3.53-2.74v2.15h1.22v0.75h-1.22
				v1.06H167.51z"/>
		</g>
		<g>
			<path style="fill:#FFFFFF;" d="M154.99,32.24h-0.7v-4.02h0.54l2.2,2.28c0.58,0.59,0.93,0.7,1.28,0.7c0.58,0,0.93-0.41,0.93-1.19
				c0-0.6-0.19-1.09-0.61-1.43l0.47-0.54c0.54,0.43,0.85,1.17,0.85,2.05c0,1.17-0.6,1.92-1.56,1.92c-0.54,0-1.03-0.16-1.76-0.92
				l-1.65-1.71V32.24z"/>
			<path style="fill:#FFFFFF;" d="M155.98,36.82c-0.97,0-1.74-0.69-1.74-2.12c0-0.79,0.26-1.58,0.68-2.05l0.63,0.37
				c-0.35,0.38-0.6,1-0.6,1.68c0,0.85,0.39,1.33,1,1.33c0.63,0,1.02-0.4,1.02-1.69v-1.27l2.93,0.3v3.16h-0.7v-2.49l-1.54-0.15v0.62
				C157.67,36.17,156.97,36.82,155.98,36.82z"/>
		</g>
		<g>
			<path style="fill:#FFFFFF;" d="M143.16,32.08h-0.7v-4.02h0.54l2.2,2.28c0.58,0.59,0.93,0.7,1.28,0.7c0.58,0,0.93-0.41,0.93-1.19
				c0-0.6-0.19-1.09-0.61-1.43l0.47-0.54c0.54,0.43,0.85,1.17,0.85,2.05c0,1.17-0.6,1.92-1.56,1.92c-0.54,0-1.03-0.16-1.76-0.92
				l-1.65-1.71V32.08z"/>
			<path style="fill:#FFFFFF;" d="M144.17,37.05c-1.08,0-1.77-0.87-1.77-1.98c0-1.5,1.01-2.35,2.79-2.35c1.91,0,2.93,1.08,2.93,2.65
				c0,0.53-0.1,1.03-0.33,1.39l-0.62-0.3c0.19-0.29,0.26-0.67,0.26-1.07c0-1.13-0.71-1.86-2.11-1.86c-0.06,0-0.13,0-0.2,0.01
				c0.48,0.32,0.74,0.91,0.74,1.61C145.86,36.24,145.2,37.05,144.17,37.05z M144.14,36.27c0.66,0,1.08-0.5,1.08-1.28
				c0-0.76-0.47-1.29-1.09-1.29c-0.58,0-1.08,0.46-1.08,1.33C143.05,35.76,143.47,36.27,144.14,36.27z"/>
		</g>
		<g>
			<path style="fill:#FFFFFF;" d="M131.32,32.15h-0.7v-4.02h0.54l2.2,2.28c0.58,0.59,0.93,0.7,1.28,0.7c0.58,0,0.93-0.41,0.93-1.19
				c0-0.6-0.19-1.09-0.61-1.43l0.47-0.54c0.54,0.43,0.85,1.17,0.85,2.05c0,1.17-0.6,1.92-1.56,1.92c-0.54,0-1.03-0.16-1.76-0.92
				l-1.65-1.71V32.15z"/>
			<path style="fill:#FFFFFF;" d="M136.23,36.87h-0.54l-5.05-2.26v-0.85l4.9,2.21v-2.56h-1v-0.77h1.69V36.87z"/>
		</g>
		<g>
			<path style="fill:#FFFFFF;" d="M119.49,31.96h-0.7v-4.02h0.54l2.2,2.28c0.58,0.59,0.93,0.7,1.28,0.7c0.58,0,0.93-0.41,0.93-1.19
				c0-0.6-0.19-1.09-0.61-1.43l0.47-0.54c0.54,0.43,0.85,1.17,0.85,2.05c0,1.17-0.6,1.92-1.56,1.92c-0.54,0-1.03-0.16-1.76-0.92
				l-1.65-1.71V31.96z"/>
			<path style="fill:#FFFFFF;" d="M120.38,37.03c-1.01,0-1.65-0.86-1.65-2.23c0-1.36,0.63-2.21,1.65-2.21
				c0.64,0,1.11,0.35,1.35,0.98c0.24-0.51,0.66-0.78,1.21-0.78c0.94,0,1.52,0.81,1.52,2.01c0,1.22-0.58,2.03-1.52,2.03
				c-0.55,0-0.97-0.28-1.21-0.79C121.48,36.68,121.02,37.03,120.38,37.03z M120.4,36.23c0.62,0,1-0.54,1-1.43s-0.38-1.42-1-1.42
				c-0.63,0-1.02,0.53-1.02,1.42S119.77,36.23,120.4,36.23z M122.9,33.58c-0.55,0-0.89,0.46-0.89,1.22c0,0.78,0.34,1.25,0.89,1.25
				c0.56,0,0.9-0.5,0.9-1.25C123.81,34.05,123.46,33.58,122.9,33.58z"/>
		</g>
		<g>
			<path style="fill:#FFFFFF;" d="M107.65,32.07h-0.7v-4.02h0.54l2.2,2.28c0.58,0.59,0.93,0.7,1.28,0.7c0.58,0,0.93-0.41,0.93-1.19
				c0-0.6-0.19-1.09-0.61-1.43l0.47-0.54c0.54,0.43,0.85,1.17,0.85,2.05c0,1.17-0.6,1.92-1.56,1.92c-0.54,0-1.03-0.16-1.76-0.92
				l-1.65-1.71V32.07z"/>
			<path style="fill:#FFFFFF;" d="M109.83,36.89c-1.91,0-2.94-1.08-2.94-2.65c0-0.53,0.1-1.03,0.33-1.39l0.62,0.3
				c-0.19,0.3-0.26,0.67-0.26,1.08c0,1.14,0.71,1.86,2.11,1.86h0.2c-0.49-0.33-0.74-0.92-0.74-1.62c0-1.11,0.66-1.91,1.7-1.91
				c1.08,0,1.77,0.86,1.77,1.98C112.62,36.04,111.61,36.89,109.83,36.89z M110.89,35.91c0.58,0,1.08-0.46,1.08-1.34
				c0-0.73-0.42-1.23-1.09-1.23c-0.66,0-1.08,0.49-1.08,1.27C109.81,35.38,110.28,35.91,110.89,35.91z"/>
		</g>
		<g>
			<path style="fill:#FFFFFF;" d="M96.77,31.77c-0.94,0-1.71-0.7-1.71-2.12c0-0.8,0.26-1.58,0.68-2.05l0.63,0.37
				c-0.35,0.38-0.6,1-0.6,1.69c0,0.84,0.38,1.32,0.99,1.32c0.59,0,0.98-0.42,0.98-1.38v-0.45h0.56l1.73,1.41v-2.69h0.7v3.69h-0.54
				l-1.81-1.46C98.27,31.2,97.63,31.77,96.77,31.77z"/>
			<path style="fill:#FFFFFF;" d="M97.92,32.52c1.82,0,2.86,0.98,2.86,2.29c0,1.3-1.04,2.28-2.86,2.28c-1.82,0-2.86-0.98-2.86-2.28
				C95.06,33.49,96.1,32.52,97.92,32.52z M97.92,36.28c1.43,0,2.15-0.61,2.15-1.48c0-0.88-0.72-1.49-2.15-1.49
				c-1.43,0-2.15,0.61-2.15,1.49C95.77,35.67,96.49,36.28,97.92,36.28z"/>
		</g>
		<g>
			<path style="fill:#FFFFFF;" d="M84.94,32.96c-0.94,0-1.71-0.7-1.71-2.12c0-0.8,0.26-1.58,0.68-2.05l0.63,0.37
				c-0.35,0.38-0.6,1-0.6,1.69c0,0.84,0.38,1.32,0.99,1.32c0.59,0,0.98-0.42,0.98-1.38v-0.45h0.56l1.73,1.41v-2.69h0.7v3.69h-0.54
				l-1.81-1.46C86.43,32.39,85.8,32.96,84.94,32.96z"/>
			<path style="fill:#FFFFFF;" d="M88.89,35.44h-5.6v-0.79h4.9v-1.26h0.7V35.44z"/>
		</g>
		<g>
			<path style="fill:#FFFFFF;" d="M73.1,32.16c-0.94,0-1.71-0.7-1.71-2.12c0-0.8,0.26-1.58,0.68-2.05l0.63,0.37
				c-0.35,0.38-0.6,1-0.6,1.69c0,0.84,0.38,1.32,0.99,1.32c0.59,0,0.98-0.42,0.98-1.38v-0.45h0.56l1.73,1.41v-2.69h0.7v3.69h-0.54
				l-1.81-1.46C74.6,31.59,73.96,32.16,73.1,32.16z"/>
			<path style="fill:#FFFFFF;" d="M72.15,36.8h-0.7v-4.02H72l2.2,2.28c0.58,0.59,0.93,0.7,1.28,0.7c0.58,0,0.93-0.41,0.93-1.19
				c0-0.6-0.19-1.09-0.61-1.43l0.47-0.54c0.54,0.43,0.85,1.17,0.85,2.05c0,1.17-0.6,1.92-1.56,1.92c-0.54,0-1.03-0.16-1.76-0.92
				l-1.65-1.71V36.8z"/>
		</g>
		<g>
			<path style="fill:#FFFFFF;" d="M61.27,32.17c-0.94,0-1.71-0.7-1.71-2.12c0-0.8,0.26-1.58,0.68-2.05l0.63,0.37
				c-0.35,0.38-0.6,1-0.6,1.69c0,0.84,0.38,1.32,0.99,1.32c0.59,0,0.98-0.42,0.98-1.38v-0.45h0.56l1.73,1.41v-2.69h0.7v3.69h-0.54
				l-1.81-1.46C62.76,31.6,62.13,32.17,61.27,32.17z"/>
			<path style="fill:#FFFFFF;" d="M61.27,36.71c-0.94,0-1.71-0.7-1.71-2.12c0-0.8,0.26-1.58,0.68-2.05l0.63,0.37
				c-0.35,0.38-0.6,1-0.6,1.69c0,0.84,0.38,1.32,0.99,1.32c0.59,0,0.98-0.42,0.98-1.38v-0.45h0.56l1.73,1.41v-2.69h0.7v3.69h-0.54
				l-1.81-1.46C62.76,36.14,62.13,36.71,61.27,36.71z"/>
		</g>
		<g>
			<path style="fill:#FFFFFF;" d="M49.43,31.76c-0.94,0-1.71-0.7-1.71-2.12c0-0.8,0.26-1.58,0.68-2.05l0.63,0.37
				c-0.35,0.38-0.6,1-0.6,1.69c0,0.84,0.38,1.32,0.99,1.32c0.59,0,0.98-0.42,0.98-1.38v-0.45h0.56l1.73,1.41v-2.69h0.7v3.69h-0.54
				l-1.81-1.46C50.93,31.2,50.29,31.76,49.43,31.76z"/>
			<path style="fill:#FFFFFF;" d="M49.16,37.38v-1.06h-1.38v-0.78h1.38v-3.11h0.56l3.66,2.86v0.86l-3.53-2.74v2.15h1.22v0.75h-1.22
				v1.06H49.16z"/>
		</g>
		<g>
			<path style="fill:#FFFFFF;" d="M37.6,32.18c-0.94,0-1.71-0.7-1.71-2.12c0-0.8,0.26-1.58,0.68-2.05l0.63,0.37
				c-0.35,0.38-0.6,1-0.6,1.69c0,0.84,0.38,1.32,0.99,1.32c0.59,0,0.98-0.42,0.98-1.38v-0.45h0.56l1.73,1.41v-2.69h0.7v3.69H41
				L39.2,30.5C39.09,31.62,38.46,32.18,37.6,32.18z"/>
			<path style="fill:#FFFFFF;" d="M37.63,36.77c-0.97,0-1.74-0.69-1.74-2.12c0-0.79,0.26-1.58,0.68-2.05l0.63,0.37
				c-0.35,0.38-0.6,1-0.6,1.68c0,0.85,0.39,1.33,1,1.33c0.63,0,1.02-0.4,1.02-1.69v-1.27l2.93,0.3v3.16h-0.7v-2.49l-1.54-0.15v0.62
				C39.32,36.12,38.62,36.77,37.63,36.77z"/>
		</g>
		<path style="fill-rule:evenodd;clip-rule:evenodd;fill:#FFFFFF;" d="M25.43,35.7c0-0.98-0.11-1.82-0.33-2.53
			c-0.16-0.48-0.42-0.97-0.77-1.47c0.35-0.5,0.61-1,0.77-1.47c0.22-0.71,0.33-1.55,0.33-2.52c0-5.37-5.29-8.2-8.83-3.42
			c-1.37,1.85-2.4,4.98-4.03,6.37c-1.55,1.32-3.18,1.91-4.77,0.99H7.79c6.75,4.43,9.75-5.18,12.11-7.4c2.97-2.8,6.46,2.55,3.85,5.67
			c-0.61,0.73-1.59,1.25-2.93,1.56c0,0-0.01,0.2-0.01,0.24c0,0.04,0.01,0.24,0.01,0.24c1.34,0.31,2.31,0.83,2.93,1.56
			c0.61,0.73,0.92,1.62,0.92,2.67c0,4.56-7.22,5.83-9.81-0.28c0.86,2.67,2.77,5.39,5.87,5.39C22.92,41.28,25.43,39.83,25.43,35.7
			L25.43,35.7z"/>
	</g>
</g>
</svg>
