<svg width="15" height="28" viewBox="0 0 15 28" fill="none" xmlns="http://www.w3.org/2000/svg">
<path d="M3.60185 26.197C3.60185 26.4732 3.82571 26.697 4.10185 26.697H8.56765C8.84379 26.697 9.06765 26.4732 9.06765 26.197V14.9663H12.9515C13.2185 14.9663 13.4384 14.7566 13.4509 14.4899L13.6504 10.2663C13.6568 10.1297 13.6071 9.99647 13.5127 9.89756C13.4184 9.79864 13.2876 9.74267 13.1509 9.74267H9.06765V7.15865C9.06765 6.57792 9.13735 6.27116 9.27362 6.0971C9.38468 5.95525 9.63348 5.7925 10.3341 5.7925C11.0361 5.7925 11.7089 5.79563 12.2064 5.79876C12.4551 5.80033 12.6598 5.80189 12.8024 5.80307L12.9672 5.80449L13.0104 5.80488L13.0214 5.80499L13.0241 5.80501L13.0248 5.80502L13.025 5.80502L13.025 5.80502C13.2981 5.80768 13.5228 5.5907 13.5297 5.31767L13.6293 1.37352C13.6358 1.11749 13.4478 0.897974 13.1938 0.865046L13.1295 1.3609L13.1937 0.865034L13.1936 0.865017L13.1932 0.864973L13.1922 0.864841L13.1888 0.864403L13.1764 0.86286L13.1306 0.857313C13.0907 0.852603 13.0326 0.845972 12.9579 0.838066C12.8085 0.822256 12.5923 0.801328 12.3224 0.780448C11.7828 0.738714 11.0263 0.697021 10.1561 0.697021C7.93897 0.697021 6.28665 1.38347 5.18876 2.50293C4.09506 3.61811 3.60185 5.11195 3.60185 6.63515V9.74267H1C0.723858 9.74267 0.5 9.96653 0.5 10.2427V14.4663C0.5 14.7424 0.723858 14.9663 1 14.9663H3.60185V26.197Z" stroke="#595959" stroke-linecap="round" stroke-linejoin="round"/>
</svg>
