<svg width="26" height="26" viewBox="0 0 26 26" fill="none" xmlns="http://www.w3.org/2000/svg">
<mask id="path-1-inside-1" fill="white">
<path d="M0 1.8625C0 0.834409 0.860624 0 1.92165 0H24.0783C25.1397 0 26 0.834409 26 1.8625V24.1378C26 25.1663 25.1397 26 24.0783 26H1.92165C0.860624 26 0 25.1663 0 24.1382V1.86216V1.8625Z"/>
</mask>
<path d="M0 1.8625C0 0.834409 0.860624 0 1.92165 0H24.0783C25.1397 0 26 0.834409 26 1.8625V24.1378C26 25.1663 25.1397 26 24.0783 26H1.92165C0.860624 26 0 25.1663 0 24.1382V1.86216V1.8625Z" stroke="#595959" stroke-width="2" stroke-linecap="round" stroke-linejoin="round" mask="url(#path-1-inside-1)"/>
<path d="M7.86026 21.5168V10.0232H3.82424V21.5168H7.86061H7.86026ZM5.84295 8.4542C7.25013 8.4542 8.12618 7.57156 8.12618 6.4686C8.09972 5.3406 7.25013 4.48267 5.86975 4.48267C4.48832 4.48267 3.58618 5.3406 3.58618 6.4686C3.58618 7.57156 4.46187 8.4542 5.8165 8.4542H5.8426H5.84295ZM10.0941 21.5168H14.1298V15.099C14.1298 14.7558 14.1562 14.412 14.2627 14.167C14.5544 13.4803 15.2185 12.7696 16.3336 12.7696C17.7937 12.7696 18.3781 13.8235 18.3781 15.3687V21.5168H22.4138V14.9268C22.4138 11.3965 20.4229 9.75378 17.7676 9.75378C15.5905 9.75378 14.6345 10.9055 14.1033 11.69H14.1301V10.0235H10.0945C10.147 11.1018 10.0941 21.5171 10.0941 21.5171V21.5168Z" stroke="#595959" stroke-linecap="round" stroke-linejoin="round"/>
</svg>
