<svg width="20" height="23" viewBox="0 0 20 23" fill="none" xmlns="http://www.w3.org/2000/svg">
<path d="M4.01998 21.7327L4.02018 21.7325L17.4819 13.5311C17.4824 13.5308 17.483 13.5304 17.4835 13.5301C17.8202 13.3279 18.0972 13.0377 18.2887 12.6914C18.4804 12.3446 18.5806 11.9525 18.5806 11.5547C18.5806 11.1568 18.4804 10.7648 18.2887 10.418C18.0972 10.0716 17.8202 9.78149 17.4835 9.57926C17.483 9.57893 17.4824 9.57859 17.4819 9.57826L4.02024 1.37687C4.02022 1.37685 4.0202 1.37684 4.02018 1.37683C2.52021 0.462769 0.650879 1.58631 0.650879 3.35028V19.7569C0.650879 21.5237 2.52272 22.6439 4.01998 21.7327Z" stroke="#595959"/>
</svg>
