<svg width="27" height="29" viewBox="0 0 27 29" fill="none" xmlns="http://www.w3.org/2000/svg">
<path d="M12.1998 21.4677C12.4109 21.6504 12.6488 21.8126 12.9025 21.95C13.5117 22.2798 14.2484 22.487 15.0127 22.487C19.4191 22.487 22.4322 18.2595 22.4322 13.2794C22.4322 8.36604 18.6029 4.69261 13.7113 4.69261C10.7089 4.69261 8.37063 5.7542 6.78453 7.42879C5.20387 9.09763 4.40044 11.3432 4.40044 13.6648C4.40044 14.7689 4.67839 15.994 5.17645 17.055C5.67087 18.1083 6.41286 19.0629 7.38631 19.5392L7.38737 19.5397C7.54016 19.614 7.812 19.718 8.09498 19.6001C8.39834 19.4737 8.50087 19.1872 8.54057 19.0138L8.54059 19.0138L8.54158 19.0093C8.56443 18.9051 8.63992 18.5832 8.72086 18.238C8.7889 17.9479 8.86079 17.6413 8.90851 17.4337C8.94588 17.2882 8.94781 17.1356 8.91418 16.9893C8.88107 16.8451 8.81406 16.7098 8.71718 16.5959C8.24772 15.9916 7.83775 14.8201 7.83775 13.718C7.83775 10.8614 9.88483 8.14246 13.3603 8.14246C14.8749 8.14246 16.1348 8.68192 17.0162 9.58283C17.8983 10.4845 18.4303 11.7784 18.4303 13.3382C18.4303 15.1578 17.9917 16.6583 17.3063 17.6877C16.6239 18.7126 15.7172 19.2501 14.7377 19.2501C13.7463 19.2501 13.0089 18.4071 13.2514 17.3302C13.3836 16.7434 13.559 16.1465 13.7348 15.5486C13.8031 15.3164 13.8714 15.084 13.9372 14.8521C14.1647 14.0505 14.3675 13.2378 14.3675 12.5576C14.3675 11.9424 14.2113 11.3309 13.8452 10.8612C13.4668 10.3755 12.8967 10.0856 12.1803 10.0856C11.3148 10.0856 10.573 10.5579 10.0656 11.2637C9.55945 11.9678 9.26704 12.9237 9.26704 13.9843C9.26704 14.6575 9.37524 15.2224 9.48429 15.6212C9.5389 15.821 9.59402 15.9802 9.63661 16.0918C9.63891 16.0978 9.64118 16.1037 9.6434 16.1095L9.6211 16.2085L9.46808 16.8881L8.98725 19.0244C8.62662 20.6274 8.23533 22.3682 8.11368 22.9156L8.11356 22.9162C7.89335 23.9127 7.91023 25.1942 7.98322 26.2367C3.6185 24.0872 0.580566 19.4233 0.580566 14.0011C0.580566 6.52182 6.34857 0.5 13.415 0.5C20.4801 0.5 26.2507 6.52325 26.2507 14.0025C26.2507 21.4818 20.4814 27.5037 13.4163 27.5037H13.4159C12.3351 27.5046 11.2592 27.362 10.2135 27.0799C10.7276 26.1491 11.3471 24.892 11.6098 23.8285C11.6098 23.8283 11.6099 23.8281 11.6099 23.8279L12.1998 21.4677Z" stroke="#595959" stroke-linecap="round" stroke-linejoin="round"/>
</svg>
