<svg width="22" height="25" viewBox="0 0 22 25" fill="none" xmlns="http://www.w3.org/2000/svg">
<mask id="path-1-outside-1_1204_1097" maskUnits="userSpaceOnUse" x="0.274414" y="0.237793" width="22" height="25" fill="black">
<rect fill="white" x="0.274414" y="0.237793" width="22" height="25"/>
<path d="M18.3482 6.04979C18.1963 5.97124 18.0484 5.88513 17.9052 5.79179C17.4888 5.51652 17.1071 5.19219 16.7682 4.82579C15.9192 3.85479 15.5562 1.92679 15.4402 1.23779L15.4902 2.18079C15.3932 1.60779 15.4332 1.23779 15.4402 1.23779H11.5752V16.1808C11.5752 16.3808 11.5752 16.5798 11.5672 16.7758C11.5672 16.7998 11.5642 16.8218 11.5632 16.8488C11.5632 16.8588 11.5632 16.8708 11.5602 16.8818V16.8908C11.5196 17.4268 11.3479 17.9446 11.0602 18.3987C10.7724 18.8528 10.3775 19.2292 9.91017 19.4948C9.4226 19.7722 8.87113 19.9176 8.31017 19.9168C6.51017 19.9168 5.05017 18.4488 5.05017 16.6358C5.05017 14.8218 6.51017 13.3538 8.31017 13.3538C8.65117 13.3538 8.99017 13.4078 9.31417 13.5138L9.31917 9.57779C8.33519 9.45084 7.33557 9.52926 6.38341 9.80809C5.43126 10.0869 4.54724 10.5601 3.78717 11.1978C3.12103 11.7763 2.56096 12.4667 2.13217 13.2378C1.96917 13.5188 1.35317 14.6498 1.27917 16.4838C1.23217 17.5238 1.54517 18.6038 1.69417 19.0488V19.0588C1.78717 19.3208 2.15117 20.2168 2.74317 20.9718C3.22057 21.5778 3.78462 22.1102 4.41717 22.5518V22.5418L4.42617 22.5518C6.38341 24.2378 8.37117 23.7388 8.37117 23.7388C8.73017 23.7238 9.93317 23.7388 11.2992 23.0918C12.8142 22.3738 13.6762 21.3048 13.6762 21.3048C14.2273 20.6659 14.6656 19.9378 14.9722 19.1518C15.3222 18.2318 15.4382 17.1298 15.4382 16.6898V8.76079C15.4852 8.78879 16.1102 9.20179 16.1102 9.20179C16.1102 9.20179 17.0102 9.77879 18.4132 10.1538C19.4192 10.4208 20.7762 10.4778 20.7762 10.4778V6.64079C20.3012 6.69279 19.3362 6.54279 18.3472 6.05079L18.3482 6.04979Z" />
</mask>
<path d="M18.3482 6.04979L19.0556 6.75656L20.0217 5.78954L18.8076 5.16157L18.3482 6.04979ZM17.9052 5.79179L17.3536 6.62597L17.3593 6.62967L17.9052 5.79179ZM16.7682 4.82579L16.0154 5.48402L16.0246 5.49456L16.0341 5.50484L16.7682 4.82579ZM15.4402 1.23779L16.4263 1.07177L16.2859 0.237793H15.4402V1.23779ZM15.4902 2.18079L14.5042 2.3477L16.4888 2.12785L15.4902 2.18079ZM11.5752 1.23779V0.237793H10.5752V1.23779H11.5752ZM11.5672 16.7758L10.568 16.735L10.5672 16.7554V16.7758H11.5672ZM11.5632 16.8488L10.5639 16.8118L10.5632 16.8303V16.8488H11.5632ZM11.5602 16.8818L10.5954 16.6187L10.5602 16.7479V16.8818H11.5602ZM11.5602 16.8908L12.5573 16.9663L12.5602 16.9286V16.8908H11.5602ZM9.91017 19.4948L9.41608 18.6254L9.41569 18.6256L9.91017 19.4948ZM8.31017 19.9168L8.31166 18.9168H8.31017V19.9168ZM9.31417 13.5138L9.00323 14.4642L10.3124 14.8925L10.3142 13.5151L9.31417 13.5138ZM9.31917 9.57779L10.3192 9.57906L10.3203 8.69867L9.44713 8.58601L9.31917 9.57779ZM3.78717 11.1978L3.14444 10.4317L3.1379 10.4372L3.13146 10.4428L3.78717 11.1978ZM2.13217 13.2378L2.99718 13.7396L3.00173 13.7317L3.00614 13.7238L2.13217 13.2378ZM1.27917 16.4838L2.27817 16.5289L2.27836 16.5241L1.27917 16.4838ZM1.69417 19.0488H2.69417V18.8858L2.64243 18.7313L1.69417 19.0488ZM1.69417 19.0588H0.694173V19.231L0.751782 19.3933L1.69417 19.0588ZM2.74317 20.9718L1.95624 21.5888L1.95764 21.5906L2.74317 20.9718ZM4.41717 22.5518L3.84473 23.3717L5.41717 24.4695V22.5518H4.41717ZM4.41717 22.5418L5.1604 21.8728L3.41717 19.9362V22.5418H4.41717ZM4.42617 22.5518L3.68295 23.2208L3.72542 23.268L3.77352 23.3094L4.42617 22.5518ZM8.37117 23.7388L8.32943 22.7397L8.22706 22.7439L8.12769 22.7689L8.37117 23.7388ZM11.2992 23.0918L11.7272 23.9955L11.7274 23.9954L11.2992 23.0918ZM13.6762 21.3048L12.919 20.6516L12.9081 20.6642L12.8977 20.6771L13.6762 21.3048ZM14.9722 19.1518L15.9038 19.5152L15.9068 19.5074L14.9722 19.1518ZM15.4382 8.76079L15.95 7.90169L14.4382 7.00104V8.76079H15.4382ZM16.1102 9.20179L15.5588 10.0362L15.5705 10.0436L16.1102 9.20179ZM18.4132 10.1538L18.155 11.1199L18.1566 11.1203L18.4132 10.1538ZM20.7762 10.4778L20.7342 11.4769L21.7762 11.5207V10.4778H20.7762ZM20.7762 6.64079H21.7762V5.52534L20.6674 5.64673L20.7762 6.64079ZM18.3472 6.05079L17.6397 5.34402L16.6575 6.32715L17.9018 6.94612L18.3472 6.05079ZM18.8076 5.16157C18.6853 5.09834 18.5663 5.02904 18.451 4.95392L17.3593 6.62967C17.5305 6.74122 17.7072 6.84413 17.8888 6.93802L18.8076 5.16157ZM18.4567 4.95764C18.1072 4.72656 17.7868 4.45431 17.5023 4.14674L16.0341 5.50484C16.4274 5.93007 16.8705 6.30647 17.3536 6.62595L18.4567 4.95764ZM17.521 4.16756C17.2392 3.84533 16.9859 3.28703 16.7854 2.63294C16.5929 2.00514 16.4817 1.40065 16.4263 1.07177L14.4541 1.40382C14.5147 1.76394 14.6429 2.46795 14.8732 3.21914C15.0954 3.94406 15.4481 4.83525 16.0154 5.48402L17.521 4.16756ZM14.4416 1.29074L14.4916 2.23374L16.4888 2.12785L16.4388 1.18485L14.4416 1.29074ZM16.4761 2.01388C16.4372 1.7839 16.427 1.60163 16.4261 1.4868C16.4257 1.4289 16.4277 1.39198 16.4287 1.37812C16.4293 1.36951 16.4291 1.37604 16.4267 1.39356C16.4259 1.39866 16.422 1.42722 16.4132 1.4657C16.4102 1.47879 16.3978 1.53317 16.3719 1.60015C16.3613 1.62742 16.3278 1.71234 16.2616 1.80791C16.2283 1.85594 16.1604 1.94534 16.0496 2.0306C15.9361 2.11782 15.7271 2.23779 15.4402 2.23779V0.237793C15.1531 0.237793 14.944 0.35781 14.8304 0.445123C14.7194 0.530474 14.6515 0.620003 14.6181 0.668218C14.5515 0.764145 14.5178 0.849607 14.507 0.877593C14.4805 0.946008 14.4675 1.00254 14.4638 1.01848C14.4537 1.06266 14.4483 1.09972 14.446 1.11606C14.4404 1.15606 14.4367 1.19596 14.4341 1.231C14.4287 1.30442 14.4254 1.39581 14.4262 1.50203C14.4278 1.71546 14.4461 2.00468 14.5042 2.3477L16.4761 2.01388ZM15.4402 0.237793H11.5752V2.23779H15.4402V0.237793ZM10.5752 1.23779V16.1808H12.5752V1.23779H10.5752ZM10.5752 16.1808C10.5752 16.3844 10.575 16.5629 10.568 16.735L12.5663 16.8166C12.5753 16.5967 12.5752 16.3771 12.5752 16.1808H10.5752ZM10.5672 16.7758C10.5672 16.761 10.5676 16.7495 10.568 16.7429C10.5683 16.737 10.5685 16.7337 10.5683 16.7377C10.5682 16.7386 10.5681 16.7396 10.568 16.741C10.5679 16.7424 10.5678 16.7443 10.5676 16.7462C10.5673 16.7502 10.5669 16.7556 10.5665 16.7619C10.5656 16.7744 10.5646 16.7916 10.5639 16.8118L12.5625 16.8858C12.5621 16.8953 12.5613 16.9062 12.5628 16.8846C12.5639 16.8702 12.5672 16.8273 12.5672 16.7758H10.5672ZM10.5632 16.8488C10.5632 16.858 10.5628 16.831 10.565 16.7984C10.5673 16.7643 10.5735 16.699 10.5954 16.6187L12.5249 17.1449C12.5498 17.0536 12.5576 16.9768 12.5606 16.9315C12.5635 16.8875 12.5632 16.8496 12.5632 16.8488H10.5632ZM10.5602 16.8818V16.8908H12.5602V16.8818H10.5602ZM10.563 16.8153C10.5348 17.1879 10.4155 17.5478 10.2155 17.8635L11.9049 18.934C12.2803 18.3414 12.5044 17.6657 12.5573 16.9663L10.563 16.8153ZM10.2155 17.8635C10.0155 18.1791 9.74094 18.4408 9.41608 18.6254L10.4043 20.3642C11.0141 20.0176 11.5294 19.5265 11.9049 18.934L10.2155 17.8635ZM9.41569 18.6256C9.07925 18.817 8.69873 18.9174 8.31166 18.9168L8.30869 20.9168C9.04353 20.9179 9.76595 20.7273 10.4047 20.364L9.41569 18.6256ZM8.31017 18.9168C7.06822 18.9168 6.05017 17.9023 6.05017 16.6358H4.05017C4.05017 18.9953 5.95212 20.9168 8.31017 20.9168V18.9168ZM6.05017 16.6358C6.05017 15.3681 7.06842 14.3538 8.31017 14.3538V12.3538C5.95192 12.3538 4.05017 14.2755 4.05017 16.6358H6.05017ZM8.31017 14.3538C8.54566 14.3538 8.77971 14.3911 9.00323 14.4642L9.62512 12.5634C9.20064 12.4245 8.75669 12.3538 8.31017 12.3538V14.3538ZM10.3142 13.5151L10.3192 9.57906L8.31917 9.57652L8.31417 13.5125L10.3142 13.5151ZM9.44713 8.58601C8.32606 8.44138 7.18718 8.53072 6.10237 8.84839L6.66445 10.7678C7.48396 10.5278 8.34431 10.4603 9.19122 10.5696L9.44713 8.58601ZM6.10237 8.84839C5.01757 9.16607 4.0104 9.70518 3.14444 10.4317L4.42991 11.9639C5.08409 11.415 5.84494 11.0078 6.66445 10.7678L6.10237 8.84839ZM3.13146 10.4428C2.37747 11.0976 1.74354 11.879 1.25821 12.7518L3.00614 13.7238C3.37838 13.0544 3.86459 12.455 4.44289 11.9528L3.13146 10.4428ZM1.26717 12.736C1.05305 13.1052 0.362614 14.3956 0.279986 16.4435L2.27836 16.5241C2.34373 14.9039 2.8853 13.9324 2.99718 13.7396L1.26717 12.736ZM0.280193 16.4386C0.224632 17.6681 0.586774 18.891 0.745917 19.3663L2.64243 18.7313C2.50357 18.3166 2.23971 17.3795 2.27815 16.5289L0.280193 16.4386ZM0.694173 19.0488V19.0588H2.69417V19.0488H0.694173ZM0.751782 19.3933C0.862384 19.7049 1.27016 20.7138 1.95624 21.5888L3.53011 20.3548C3.03219 19.7197 2.71196 18.9367 2.63656 18.7243L0.751782 19.3933ZM1.95764 21.5906C2.49581 22.2738 3.13166 22.8739 3.84473 23.3717L4.98962 21.7318C4.43759 21.3464 3.94533 20.8818 3.5287 20.353L1.95764 21.5906ZM5.41717 22.5518V22.5418H3.41717V22.5518H5.41717ZM3.67395 23.2108L3.68295 23.2208L5.1694 21.8828L5.1604 21.8728L3.67395 23.2108ZM3.77352 23.3094C4.9263 24.3025 6.10903 24.6655 7.01744 24.7709C7.46803 24.8231 7.84857 24.8119 8.1238 24.786C8.26171 24.773 8.37422 24.7562 8.45712 24.7415C8.49861 24.7341 8.53282 24.7272 8.55921 24.7215C8.57241 24.7187 8.58367 24.7161 8.59293 24.7139C8.59756 24.7129 8.60169 24.7119 8.60531 24.711C8.60712 24.7106 8.60881 24.7101 8.61037 24.7098C8.61115 24.7096 8.61189 24.7094 8.61261 24.7092C8.61296 24.7091 8.61348 24.709 8.61366 24.7089C8.61416 24.7088 8.61466 24.7087 8.37117 23.7388C8.12769 22.7689 8.12817 22.7688 8.12865 22.7686C8.12879 22.7686 8.12926 22.7685 8.12956 22.7684C8.13015 22.7683 8.13072 22.7681 8.13125 22.768C8.13233 22.7677 8.13329 22.7675 8.13414 22.7673C8.13584 22.7669 8.13708 22.7666 8.13789 22.7664C8.13951 22.766 8.13937 22.7661 8.13754 22.7665C8.13386 22.7673 8.12344 22.7694 8.10675 22.7724C8.07331 22.7784 8.01523 22.7874 7.93621 22.7948C7.77757 22.8098 7.53884 22.8179 7.24783 22.7842C6.67306 22.7175 5.88329 22.4871 5.07883 21.7941L3.77352 23.3094ZM8.41292 24.7379C8.75604 24.7236 10.154 24.7407 11.7272 23.9955L10.8711 22.188C9.71236 22.7369 8.70431 22.724 8.32943 22.7397L8.41292 24.7379ZM11.7274 23.9954C12.5897 23.5868 13.2612 23.0812 13.7172 22.6791C13.9462 22.4772 14.1239 22.2986 14.2473 22.167C14.3091 22.1011 14.3575 22.0468 14.3921 22.0068C14.4094 21.9868 14.4233 21.9704 14.4337 21.9579C14.439 21.9516 14.4433 21.9464 14.4468 21.9421C14.4485 21.94 14.4501 21.9381 14.4514 21.9365C14.452 21.9357 14.4526 21.935 14.4532 21.9343C14.4534 21.934 14.4537 21.9337 14.4539 21.9334C14.4541 21.9332 14.4542 21.933 14.4543 21.9329C14.4545 21.9327 14.4546 21.9325 13.6762 21.3048C12.8977 20.6771 12.8979 20.6769 12.898 20.6767C12.8981 20.6766 12.8982 20.6764 12.8983 20.6763C12.8985 20.6761 12.8987 20.6759 12.8989 20.6757C12.8992 20.6752 12.8995 20.6749 12.8997 20.6746C12.9002 20.674 12.9004 20.6737 12.9005 20.6736C12.9006 20.6735 12.9 20.6743 12.8985 20.6761C12.8956 20.6796 12.8895 20.6868 12.8803 20.6975C12.8618 20.7188 12.831 20.7535 12.7883 20.7991C12.7027 20.8904 12.5703 21.0239 12.3944 21.179C12.0407 21.4909 11.5237 21.8788 10.8709 22.1881L11.7274 23.9954ZM14.4334 21.958C15.0587 21.2331 15.5559 20.407 15.9038 19.5152L14.0405 18.7884C13.7752 19.4686 13.3959 20.0987 12.919 20.6516L14.4334 21.958ZM15.9068 19.5074C16.3091 18.45 16.4382 17.2229 16.4382 16.6898H14.4382C14.4382 17.0367 14.3352 18.0136 14.0375 18.7962L15.9068 19.5074ZM16.4382 16.6898V8.76079H14.4382V16.6898H16.4382ZM14.9264 9.61989C14.9243 9.61867 15.0611 9.70795 15.2419 9.827C15.3225 9.88011 15.4018 9.9324 15.4609 9.97144C15.4905 9.99095 15.515 10.0071 15.5321 10.0184C15.5407 10.0241 15.5474 10.0285 15.5519 10.0315C15.5542 10.033 15.556 10.0342 15.5571 10.0349C15.5577 10.0353 15.5581 10.0356 15.5584 10.0358C15.5586 10.0359 15.5587 10.036 15.5588 10.036C15.5588 10.0361 15.5588 10.0361 15.5588 10.0361C15.5589 10.0361 15.5589 10.0361 15.5589 10.0361C15.5589 10.0361 15.5589 10.0361 16.1102 9.20179C16.6615 8.36749 16.6615 8.36749 16.6615 8.36748C16.6615 8.36748 16.6615 8.36747 16.6614 8.36747C16.6614 8.36745 16.6614 8.36743 16.6614 8.36741C16.6613 8.36735 16.6612 8.36728 16.661 8.36718C16.6607 8.36697 16.6602 8.36667 16.6596 8.36627C16.6584 8.36548 16.6567 8.36431 16.6544 8.36278C16.6497 8.35973 16.643 8.35525 16.6343 8.34956C16.6171 8.33816 16.5924 8.32186 16.5626 8.30221C16.5031 8.26294 16.4232 8.21023 16.3417 8.15659C16.1983 8.06214 15.999 7.93092 15.95 7.90169L14.9264 9.61989ZM16.1102 9.20179C15.5705 10.0436 15.5706 10.0437 15.5708 10.0439C15.5709 10.0439 15.571 10.044 15.5712 10.0441C15.5714 10.0443 15.5717 10.0444 15.572 10.0446C15.5725 10.045 15.5732 10.0454 15.5738 10.0458C15.5752 10.0467 15.5768 10.0477 15.5786 10.0488C15.5822 10.0511 15.5867 10.0539 15.5921 10.0573C15.6028 10.064 15.6171 10.0727 15.6348 10.0834C15.6702 10.1048 15.7193 10.1338 15.7815 10.1688C15.9056 10.2388 16.0821 10.3334 16.3048 10.4396C16.7489 10.6516 17.3828 10.9135 18.155 11.1199L18.6714 9.18771C18.0406 9.0191 17.523 8.80496 17.1663 8.63472C16.9886 8.54986 16.8524 8.47668 16.764 8.4268C16.7198 8.40188 16.6877 8.38286 16.6684 8.37121C16.6587 8.36539 16.6523 8.36141 16.6492 8.35947C16.6476 8.3585 16.6469 8.35804 16.647 8.35811C16.6471 8.35815 16.6473 8.35831 16.6478 8.35862C16.6481 8.35877 16.6483 8.35896 16.6487 8.35918C16.6489 8.35929 16.6491 8.35941 16.6493 8.35954C16.6494 8.3596 16.6495 8.3597 16.6496 8.35974C16.6497 8.35984 16.6499 8.35995 16.1102 9.20179ZM18.1566 11.1203C18.7353 11.2739 19.3869 11.3612 19.87 11.4107C20.1166 11.436 20.3298 11.4524 20.482 11.4625C20.5583 11.4676 20.6196 11.4711 20.6627 11.4734C20.6843 11.4746 20.7013 11.4754 20.7134 11.476C20.7194 11.4763 20.7242 11.4765 20.7277 11.4766C20.7294 11.4767 20.7308 11.4768 20.7319 11.4768C20.7325 11.4768 20.7329 11.4769 20.7333 11.4769C20.7335 11.4769 20.7337 11.4769 20.7338 11.4769C20.7339 11.4769 20.734 11.4769 20.734 11.4769C20.7341 11.4769 20.7342 11.4769 20.7762 10.4778C20.8181 9.47867 20.8182 9.47868 20.8183 9.47868C20.8183 9.47868 20.8184 9.47868 20.8184 9.47868C20.8185 9.47869 20.8185 9.47869 20.8185 9.47869C20.8186 9.47869 20.8186 9.47869 20.8185 9.47869C20.8182 9.47868 20.8177 9.47865 20.8169 9.47862C20.8151 9.47854 20.8122 9.47841 20.808 9.47821C20.7997 9.47781 20.7866 9.47717 20.7691 9.47624C20.734 9.47437 20.6815 9.47136 20.6148 9.46692C20.4812 9.45803 20.2922 9.44349 20.0738 9.42112C19.6269 9.37535 19.0971 9.30069 18.6697 9.18726L18.1566 11.1203ZM21.7762 10.4778V6.64079H19.7762V10.4778H21.7762ZM20.6674 5.64673C20.4323 5.67247 19.661 5.58746 18.7926 5.15546L17.9018 6.94612C19.0114 7.49813 20.1701 7.71312 20.885 7.63485L20.6674 5.64673ZM19.0546 6.75756L19.0556 6.75656L17.6407 5.34302L17.6397 5.34402L19.0546 6.75756Z" fill="#3b3b3b" mask="url(#path-1-outside-1_1204_1097)"/>
</svg>
