<svg width="14" height="28" viewBox="0 0 14 28" fill="none" xmlns="http://www.w3.org/2000/svg">
<path d="M3.55852 26.1973C3.55852 26.4734 3.78238 26.6973 4.05852 26.6973H8.46194C8.73808 26.6973 8.96194 26.4734 8.96194 26.1973V14.9665H12.7846C13.0517 14.9665 13.2716 14.7566 13.284 14.4898L13.4806 10.2662C13.487 10.1297 13.4372 9.99652 13.3429 9.89768C13.2485 9.79884 13.1178 9.74292 12.9812 9.74292H8.96194V7.15889C8.96194 6.57758 9.03081 6.26931 9.16564 6.09466C9.27391 5.9544 9.5158 5.79274 10.2037 5.79274C10.8958 5.79274 11.5592 5.79587 12.0497 5.79901C12.2949 5.80057 12.4968 5.80214 12.6374 5.80331L12.8 5.80473L12.8425 5.80513L12.8533 5.80523L12.856 5.80526L12.8567 5.80526L12.8569 5.80527L12.8569 5.80527C13.1301 5.80796 13.3549 5.59087 13.3617 5.31774L13.4599 1.37359C13.4663 1.11797 13.2788 0.89874 13.0252 0.865407L12.9601 1.36114L13.0251 0.865394L13.025 0.865378L13.0247 0.865333L13.0237 0.865199L13.0202 0.864759L13.0081 0.863211L12.9627 0.857655C12.9234 0.852938 12.8661 0.846301 12.7923 0.838389C12.6449 0.822566 12.4316 0.801626 12.1653 0.780734C11.633 0.738979 10.8867 0.697266 10.0282 0.697266C7.83847 0.697266 6.20647 1.38508 5.1228 2.50569C4.04405 3.62121 3.55852 5.11419 3.55852 6.63539V9.74292H1C0.723858 9.74292 0.5 9.96677 0.5 10.2429V14.4665C0.5 14.7427 0.723858 14.9665 1 14.9665H3.55852V26.1973Z" stroke="#E8927C" stroke-linecap="round" stroke-linejoin="round"/>
</svg>
