<svg width="27" height="29" viewBox="0 0 27 29" fill="none" xmlns="http://www.w3.org/2000/svg">
<path d="M12.3366 21.4758C12.5419 21.6546 12.7727 21.8135 13.0187 21.9486C13.6207 22.2791 14.3492 22.487 15.1054 22.487C19.4612 22.487 22.4282 18.2523 22.4282 13.2794C22.4282 8.37262 18.6558 4.69261 13.8222 4.69261C10.8577 4.69261 8.54945 5.75588 6.98467 7.43135C5.42579 9.10051 4.63439 11.3452 4.63439 13.6648C4.63439 14.7678 4.90818 15.992 5.39908 17.0526C5.88612 18.1048 6.61781 19.0606 7.57996 19.5379L7.58102 19.5385C7.73184 19.6128 8.00474 19.7194 8.2893 19.5991C8.59192 19.4713 8.69221 19.1833 8.73081 19.0124L8.73083 19.0124L8.7318 19.0079C8.75432 18.9037 8.82876 18.5817 8.90858 18.2365C8.97569 17.9463 9.04659 17.6396 9.09364 17.4321C9.13024 17.2876 9.13214 17.1361 9.0992 16.9907C9.06678 16.8477 9.00106 16.7126 8.90539 16.5985C8.44243 15.9942 8.03764 14.8217 8.03764 13.718C8.03764 10.8544 10.0599 8.14246 13.476 8.14246C14.9655 8.14246 16.2053 8.68031 17.0734 9.58031C17.9428 10.4816 18.4682 11.7763 18.4682 13.3382C18.4682 15.1591 18.0354 16.6606 17.3593 17.6904C16.686 18.7161 15.7939 19.2501 14.8343 19.2501C13.8694 19.2501 13.1347 18.4147 13.3758 17.3288C13.5062 16.7418 13.6793 16.1446 13.8526 15.5467C13.9199 15.3145 13.9872 15.0822 14.0521 14.8503C14.2765 14.0486 14.4762 13.2367 14.4762 12.5576C14.4762 11.9439 14.3226 11.3334 13.9618 10.8638C13.5883 10.3778 13.0237 10.0856 12.3126 10.0856C11.4533 10.0856 10.7197 10.5611 10.2198 11.2664C9.72087 11.9703 9.433 12.9252 9.433 13.9843C9.433 14.6568 9.53958 15.2211 9.647 15.6195C9.7008 15.8191 9.75509 15.9781 9.79704 16.0896C9.79954 16.0963 9.80198 16.1027 9.80439 16.109L9.78196 16.21L9.63107 16.8896L9.15696 19.0259C8.80136 20.6288 8.41555 22.3697 8.2956 22.9171L8.29548 22.9176C8.07887 23.9118 8.0951 25.1902 8.16677 26.2314C3.87339 24.0807 0.881836 19.4218 0.881836 14.0011C0.881836 6.51501 6.57289 0.5 13.53 0.5C20.4858 0.5 26.1795 6.51645 26.1795 14.0025C26.1795 21.4886 20.4871 27.5037 13.5313 27.5037H13.5309C12.4672 27.5046 11.4081 27.3624 10.3788 27.0809C10.886 26.1499 11.4979 24.8914 11.7571 23.8272C11.7572 23.8269 11.7572 23.8266 11.7573 23.8263L12.3366 21.4758Z" stroke="#E8927C" stroke-linecap="round" stroke-linejoin="round"/>
</svg>
