<svg width="28" height="23" viewBox="0 0 28 23" fill="none" xmlns="http://www.w3.org/2000/svg">
<mask id="path-1-outside-1" maskUnits="userSpaceOnUse" x="-0.249268" y="0.912598" width="28" height="22" fill="black">
<rect fill="white" x="-0.249268" y="0.912598" width="28" height="22"/>
<path d="M26.3691 4.28835C25.4637 4.67888 24.4785 4.95995 23.4637 5.06941C24.5173 4.44348 25.3063 3.45462 25.6827 2.28835C24.694 2.87648 23.6109 3.28889 22.4815 3.50728C22.0094 3.00263 21.4385 2.6006 20.8043 2.32624C20.1701 2.05189 19.4861 1.91108 18.7951 1.91261C15.9992 1.91261 13.7507 4.17888 13.7507 6.95994C13.7507 7.35048 13.7981 7.74101 13.875 8.11675C9.6886 7.89781 5.95487 5.89781 3.47262 2.83569C3.02033 3.60822 2.78332 4.48783 2.78623 5.38302C2.78623 7.1345 3.67677 8.67888 5.03475 9.58716C4.23447 9.55564 3.45293 9.33568 2.75369 8.94515V9.00728C2.75369 11.4599 4.48742 13.4925 6.79807 13.9599C6.36422 14.0726 5.91791 14.1303 5.46967 14.1315C5.14126 14.1315 4.83061 14.099 4.517 14.0546C5.15606 16.0546 7.017 17.5073 9.23298 17.5546C7.49925 18.9126 5.32765 19.7114 2.96967 19.7114C2.54659 19.7114 2.15606 19.6966 1.75073 19.6493C3.98742 21.0842 6.64126 21.9126 9.49925 21.9126C18.7773 21.9126 23.8543 14.2262 23.8543 7.55462C23.8543 7.33568 23.8543 7.11675 23.8395 6.89781C24.8217 6.17888 25.6827 5.28835 26.3691 4.28835Z"/>
</mask>
<path d="M26.3691 4.28835C25.4637 4.67888 24.4785 4.95995 23.4637 5.06941C24.5173 4.44348 25.3063 3.45462 25.6827 2.28835C24.694 2.87648 23.6109 3.28889 22.4815 3.50728C22.0094 3.00263 21.4385 2.6006 20.8043 2.32624C20.1701 2.05189 19.4861 1.91108 18.7951 1.91261C15.9992 1.91261 13.7507 4.17888 13.7507 6.95994C13.7507 7.35048 13.7981 7.74101 13.875 8.11675C9.6886 7.89781 5.95487 5.89781 3.47262 2.83569C3.02033 3.60822 2.78332 4.48783 2.78623 5.38302C2.78623 7.1345 3.67677 8.67888 5.03475 9.58716C4.23447 9.55564 3.45293 9.33568 2.75369 8.94515V9.00728C2.75369 11.4599 4.48742 13.4925 6.79807 13.9599C6.36422 14.0726 5.91791 14.1303 5.46967 14.1315C5.14126 14.1315 4.83061 14.099 4.517 14.0546C5.15606 16.0546 7.017 17.5073 9.23298 17.5546C7.49925 18.9126 5.32765 19.7114 2.96967 19.7114C2.54659 19.7114 2.15606 19.6966 1.75073 19.6493C3.98742 21.0842 6.64126 21.9126 9.49925 21.9126C18.7773 21.9126 23.8543 14.2262 23.8543 7.55462C23.8543 7.33568 23.8543 7.11675 23.8395 6.89781C24.8217 6.17888 25.6827 5.28835 26.3691 4.28835Z" stroke="#E8927C" stroke-width="2" stroke-linecap="round" stroke-linejoin="round" mask="url(#path-1-outside-1)"/>
</svg>
