<svg width="21" height="20" viewBox="0 0 21 20" fill="none" xmlns="http://www.w3.org/2000/svg">
<path d="M4.94175 1.92607C9.46149 -0.807751 15.2798 0.501341 18.1317 4.89043C20.8625 9.41012 19.5523 15.2266 15.1633 18.0773C13.6221 19.0243 11.8406 19.5 10.0553 19.5C8.40806 19.5 6.74623 19.0312 5.18788 18.1958L4.83265 17.959L4.64471 17.8337L4.42647 17.8919L1.51092 18.6694L2.2884 15.7538L2.3466 15.5356L2.22131 15.3476L1.97307 14.9753C-0.867883 10.5922 0.551076 4.65734 4.94175 1.92607ZM13.9304 16.125H13.9659L14.0011 16.1199C15.056 15.9692 15.7925 15.3582 16.3464 14.5273C16.7058 13.9882 16.6881 13.317 16.5297 12.8418L16.4924 12.7299L16.4089 12.6464C16.2974 12.5348 16.1555 12.4456 16.0378 12.3783C15.9163 12.3089 15.7809 12.2412 15.6606 12.181L15.654 12.1777L13.654 11.1777C13.5181 11.1098 13.2984 11.0098 13.0357 11.0536C12.7792 11.0964 12.5909 11.2573 12.4518 11.3964L12.4503 11.3979C12.3255 11.5227 12.1015 11.7467 11.8921 11.9722C11.7871 12.0853 11.6818 12.203 11.5926 12.3118C11.5328 12.3847 11.4662 12.4702 11.4119 12.5566C11.4093 12.5554 11.4067 12.5541 11.404 12.5527L11.3908 12.5462L11.3773 12.5404C10.5646 12.1921 9.86043 11.7264 9.14288 11.1303C8.57149 10.5569 8.00098 9.87588 7.53605 9.19357L7.6015 9.16084L7.65888 9.10347C7.75764 9.0047 7.84463 8.87385 7.89873 8.79247C7.90224 8.78719 7.90562 8.78211 7.90885 8.77726C7.98088 8.66922 8.01406 8.62329 8.03388 8.60346C8.20011 8.43723 8.4146 8.08861 8.34561 7.68228C8.38342 7.57777 8.39908 7.47133 8.39908 7.3749C8.39908 7.22799 8.36273 7.05784 8.26708 6.90667C8.2627 6.89217 8.25814 6.87775 8.25359 6.86371C8.23276 6.79949 8.20451 6.72048 8.17237 6.63413C8.10767 6.46023 8.01988 6.23687 7.92581 6.0017C7.83145 5.76581 7.72939 5.51457 7.63566 5.28415L7.60758 5.21514C7.53036 5.02533 7.46041 4.85338 7.40625 4.71837C7.324 4.41271 7.17589 4.15362 6.91276 4.00326C6.68403 3.87256 6.43751 3.87409 6.32574 3.87479C6.31832 3.87484 6.3115 3.87488 6.30531 3.87488H5.68031C5.25093 3.87488 4.88125 4.09183 4.57675 4.39633C3.85503 5.11805 3.4303 6.12152 3.4303 7.2499V7.2776L3.43335 7.30512C3.56472 8.48737 3.96022 9.70757 4.78076 10.6769C6.0737 12.6076 7.88444 14.2883 10.0924 15.3274L10.1059 15.3337L10.1196 15.3392C11.3937 15.8488 12.2197 16.0522 12.8094 16.1215C13.2373 16.1719 13.5879 16.147 13.7897 16.1327C13.851 16.1283 13.8985 16.125 13.9304 16.125Z" stroke="#E8927C"/>
</svg>
