<svg width="34" height="29" viewBox="0 0 34 29" fill="none" xmlns="http://www.w3.org/2000/svg">
<path d="M11.3285 17.0186C11.3285 17.4049 11.3605 17.7851 11.4225 18.1575C11.03 18.1227 10.6443 18.0693 10.2666 17.9985C8.45863 19.4132 4.8651 21.4465 1.83179 20.5798C2.92461 19.8513 4.92287 17.8484 4.86287 15.3121C3.34362 13.8576 2.42533 11.9651 2.42533 9.89605C2.42533 5.30677 6.94289 1.58643 12.5156 1.58643C17.6191 1.58643 21.8377 4.70673 22.5118 8.75715C22.1528 8.7253 21.7881 8.70896 21.4187 8.70896M11.3285 17.0186C11.3285 12.4293 15.8461 8.70896 21.4187 8.70896M11.3285 17.0186C11.3285 21.6079 15.8461 25.3282 21.4187 25.3282C22.1918 25.3282 22.9445 25.2566 23.6677 25.121C25.4757 26.5357 29.0692 28.569 32.1025 27.7024C31.0097 26.9738 29.0115 24.9709 29.0715 22.4347C30.5907 20.9801 31.509 19.0877 31.509 17.0186C31.509 12.4293 26.9914 8.70896 21.4187 8.70896" stroke="#333333" stroke-width="1.18709"/>
</svg>
