<svg width="32" height="19" viewBox="0 0 32 19" fill="none" xmlns="http://www.w3.org/2000/svg">
<path d="M31.5841 15.9131V15.9115V2.93824C31.5841 1.48547 30.4502 0.284311 29.0355 0.284311H2.79366C1.37897 0.284311 0.245004 1.48547 0.245004 2.93824V7.46258V15.9115C0.245004 17.3643 1.37897 18.5655 2.79366 18.5655H29.0355C30.4515 18.5655 31.575 17.3632 31.5841 15.9131ZM0.930719 15.9115V7.80583H30.8984V15.9115C30.8984 16.9988 30.0501 17.8702 29.0355 17.8702H2.79366C1.77902 17.8702 0.930719 16.9988 0.930719 15.9115ZM29.0355 0.979631C29.9408 0.979631 30.7136 1.67329 30.8697 2.59499H0.959437C1.11554 1.67329 1.88839 0.979631 2.79366 0.979631H29.0355ZM0.930719 3.28149H30.89V7.11051H0.930719V3.28149Z" fill="#333333" stroke="#333333" stroke-width="0.474836"/>
</svg>
