<svg width="32" height="24" viewBox="0 0 32 24" fill="none" xmlns="http://www.w3.org/2000/svg">
<path d="M29.7298 9.11877C30.0488 9.19426 30.3685 8.99687 30.444 8.67787L31.6743 3.47957C31.7498 3.16058 31.5524 2.84078 31.2334 2.76528C30.9144 2.68979 30.5946 2.88719 30.5191 3.20618L29.4256 7.82689L24.8048 6.73333C24.4859 6.65784 24.1661 6.85523 24.0906 7.17422C24.0151 7.49322 24.2125 7.81301 24.5315 7.88851L29.7298 9.11877ZM1.93821 10.1818C3.4192 5.83137 8.49557 2.66968 14.2025 2.04159C19.8745 1.41734 25.9506 3.32727 29.3614 8.85294L30.3715 8.22942C26.6597 2.216 20.0736 0.201158 14.0726 0.861625C8.10646 1.51825 2.49903 4.85076 0.814452 9.79922L1.93821 10.1818Z" fill="#333333"/>
<path d="M2.10618 15.348C1.78719 15.2725 1.46739 15.4699 1.39189 15.7889L0.161636 20.9872C0.0861409 21.3062 0.283536 21.626 0.60253 21.7015C0.921523 21.777 1.24132 21.5796 1.31681 21.2606L2.41038 16.6399L7.03109 17.7335C7.35008 17.809 7.66988 17.6116 7.74538 17.2926C7.82087 16.9736 7.62348 16.6538 7.30448 16.5783L2.10618 15.348ZM29.8977 14.285C28.4167 18.6354 23.3404 21.7971 17.6335 22.4252C11.9615 23.0495 5.88529 21.1395 2.47456 15.6139L1.46441 16.2374C5.17621 22.2508 11.7623 24.2656 17.7633 23.6052C23.7295 22.9485 29.3369 19.616 31.0215 14.6676L29.8977 14.285Z" fill="#333333"/>
</svg>
