<svg width="33" height="26" viewBox="0 0 33 26" fill="none" xmlns="http://www.w3.org/2000/svg">
<rect x="1.09155" y="1.33472" width="22.5547" height="20.1805" rx="1.18709" stroke="#333333" stroke-width="1.18709"/>
<path d="M11.7752 21.5151C11.7752 23.482 10.1808 25.0764 8.21398 25.0764C6.24714 25.0764 4.65271 23.482 4.65271 21.5151" stroke="#333333" stroke-width="1.18709"/>
<path d="M28.3944 21.5151C28.3944 23.482 26.7999 25.0764 24.8331 25.0764C22.8663 25.0764 21.2719 23.482 21.2719 21.5151" stroke="#333333" stroke-width="1.18709"/>
<path d="M31.9557 13.2056L32.5012 12.9718L31.9557 13.2056ZM28.7028 5.61547L28.1572 5.84928L28.7028 5.61547ZM28.1572 5.84928L31.4101 13.4394L32.5012 12.9718L29.2483 5.38166L28.1572 5.84928ZM24.8332 5.48954H27.6117V4.30245H24.8332V5.48954ZM24.2396 13.2055V6.08308H23.0525V13.2055H24.2396ZM24.2395 20.328V13.2055H23.0525V20.328H24.2395ZM30.7685 20.9216H24.8331V22.1087H30.7685V20.9216ZM31.3621 13.2056V20.328H32.5492V13.2056H31.3621ZM32.5492 13.2056C32.5492 13.5334 32.2834 13.7992 31.9556 13.7992V12.6121C31.6278 12.6121 31.3621 12.8778 31.3621 13.2056H32.5492ZM30.7685 22.1087C31.7519 22.1087 32.5492 21.3114 32.5492 20.328H31.3621C31.3621 20.6558 31.0963 20.9216 30.7685 20.9216V22.1087ZM23.0525 20.328C23.0525 21.3114 23.8497 22.1087 24.8331 22.1087V20.9216C24.5053 20.9216 24.2395 20.6558 24.2395 20.328H23.0525ZM23.646 12.6119C23.3107 12.6119 23.0525 12.8853 23.0525 13.2055H24.2395C24.2395 13.5257 23.9813 13.799 23.646 13.799V12.6119ZM23.0525 13.2055C23.0525 12.8777 23.3183 12.6119 23.646 12.6119V13.799C23.9739 13.799 24.2396 13.5333 24.2396 13.2055H23.0525ZM24.8332 4.30245C23.8497 4.30245 23.0525 5.09967 23.0525 6.08308H24.2396C24.2396 5.75528 24.5054 5.48954 24.8332 5.48954V4.30245ZM31.4101 13.4394C31.2462 13.057 31.5195 12.6121 31.9556 12.6121V13.7992C32.3918 13.7992 32.6651 13.3542 32.5012 12.9718L31.4101 13.4394ZM29.2483 5.38166C28.9677 4.72695 28.324 4.30245 27.6117 4.30245V5.48954C27.8491 5.48954 28.0637 5.63104 28.1572 5.84928L29.2483 5.38166Z" fill="#333333"/>
</svg>
